<svg width="671" height="212" viewBox="0 0 671 212" fill="none" xmlns="http://www.w3.org/2000/svg">
<path d="M531.257 44.5128C531.579 44.8354 531.902 44.8354 532.224 44.8354C535.772 42.5774 538.675 40.6421 540.933 39.0293C543.514 37.0939 545.772 35.8037 547.385 34.1909C549.642 32.5781 551.255 30.9653 552.223 29.9976C553.191 28.7073 554.158 27.7397 554.481 26.772C555.126 27.7397 555.771 28.7073 556.739 29.9976C557.706 31.2878 559.319 32.5781 561.577 34.1909C563.19 35.4811 565.448 37.0939 568.028 39.0293C570.609 40.6421 573.512 42.5774 576.738 44.8354C577.06 45.1579 577.705 44.8354 577.705 44.5128L579.963 41.2872C580.286 40.9646 579.963 40.3195 579.641 40.3195C576.738 38.3841 574.157 36.7713 572.222 35.4811C569.964 33.8683 568.028 32.5781 566.416 31.2878C564.158 29.675 562.545 28.0622 561.255 26.772C559.964 25.4817 558.997 24.1915 558.352 23.2238C557.706 21.9336 557.384 20.6433 557.061 19.3531C557.061 18.0629 556.739 16.4501 556.739 14.1921V5.48301C556.739 5.16045 556.416 4.83789 556.094 4.83789H551.9C551.578 4.83789 551.255 5.16045 551.255 5.48301V14.1921C551.255 16.1275 551.255 17.7403 550.933 19.3531C550.933 20.6433 550.288 21.9336 549.642 23.2238C548.997 24.5141 548.03 25.8043 546.739 26.772C545.449 28.0622 543.836 29.3525 541.578 31.2878C539.966 32.5781 538.03 33.8683 535.772 35.4811C533.837 36.7713 531.257 38.3841 528.353 40.3195C528.031 40.6421 527.708 40.9646 528.031 41.2872L531.257 44.5128Z" fill="#D71D24"/>
<path d="M621.896 44.5133C622.218 44.8359 622.541 44.8359 622.864 44.8359C626.412 42.5779 629.315 40.6426 631.573 39.0298C634.153 37.417 636.089 35.8042 638.024 34.1914C640.282 32.5786 641.895 30.9658 642.862 29.9981C643.83 28.7079 644.798 27.7402 645.12 26.7725C645.765 27.7402 646.41 28.7079 647.378 29.9981C648.346 31.2883 649.959 32.5786 652.217 34.1914C653.829 35.4816 656.087 37.0944 658.668 39.0298C660.926 40.6426 663.829 42.5779 667.377 44.8359C667.699 45.1584 668.345 44.8359 668.345 44.5133L670.602 41.2877C670.925 40.9651 670.602 40.32 670.28 40.32C667.377 38.3847 664.796 36.7719 662.861 35.4816C660.603 34.1914 658.668 32.5786 657.055 31.2883C654.797 29.6755 653.184 28.0627 651.894 26.7725C650.604 25.4823 649.636 24.192 648.991 23.2243C648.346 21.9341 648.023 20.6439 647.701 19.3536C647.701 18.0634 647.378 16.7731 647.378 15.1603C647.378 14.8378 647.701 14.5152 648.023 14.5152H668.022C668.345 14.5152 668.667 14.1927 668.667 13.8701V10.3219C668.667 9.99937 668.345 9.67681 668.022 9.67681H648.023C647.701 9.67681 647.378 9.35425 647.378 9.03169V0.645123C647.378 0.322563 647.056 0 646.733 0H642.54C642.217 0 641.895 0.322563 641.895 0.645123V9.03169C641.895 9.35425 641.572 9.67681 641.249 9.67681H621.251C620.928 9.67681 620.606 9.99937 620.606 10.3219V13.8701C620.606 14.1927 620.928 14.5152 621.251 14.5152H641.249C641.572 14.5152 641.895 14.8378 641.895 15.1603C641.895 16.7731 641.895 18.0634 641.572 19.3536C641.572 20.6439 640.927 21.9341 640.282 23.2243C639.637 24.5146 638.669 25.8048 637.379 26.7725C636.089 28.0627 634.476 29.353 632.218 31.2883C630.605 32.5786 628.67 33.8688 626.412 35.4816C624.476 36.7719 621.896 38.3847 618.993 40.32C618.67 40.6426 618.348 40.9651 618.67 41.2877L621.896 44.5133Z" fill="#D71D24"/>
<path d="M578.673 130.963L580.931 127.737C581.253 127.414 580.931 126.769 580.608 126.769C577.705 124.834 575.125 123.221 573.189 121.931C570.931 120.641 568.996 119.028 567.383 117.738C565.125 116.125 563.513 114.512 562.222 113.222C560.932 111.931 559.964 110.641 559.319 109.674C558.674 108.383 558.352 107.093 558.029 105.803C558.029 104.513 557.706 103.222 557.706 101.61C557.706 101.287 558.029 100.964 558.352 100.964H578.35C578.673 100.964 578.995 100.642 578.995 100.319V96.7711C578.995 96.4486 578.673 96.126 578.35 96.126H558.352C558.029 96.126 557.706 95.8035 557.706 95.4809V87.0943C557.706 86.7718 557.384 86.4492 557.061 86.4492H552.868C552.545 86.4492 552.223 86.7718 552.223 87.0943V95.4809C552.223 95.8035 551.9 96.126 551.578 96.126H531.579C531.256 96.126 530.934 96.4486 530.934 96.7711V100.319C530.934 100.642 531.256 100.964 531.579 100.964H551.578C551.9 100.964 552.223 101.287 552.223 101.61C552.223 103.222 552.223 104.513 551.9 105.803C551.9 107.093 551.255 108.383 550.61 109.674C549.965 110.964 548.997 112.254 547.707 113.222C546.417 114.512 544.804 115.802 542.546 117.738C540.933 119.028 538.998 120.318 536.74 121.931C534.805 123.221 532.224 124.834 529.321 126.769C528.999 127.092 528.676 127.414 528.999 127.737L531.257 130.963C531.579 131.285 531.902 131.285 532.224 131.285C535.772 129.027 538.675 127.092 540.933 125.479C543.514 123.866 545.449 122.253 547.385 120.641C549.642 119.028 551.255 117.415 552.223 116.447C553.191 115.157 554.158 114.189 554.481 113.222C555.126 114.189 555.771 115.157 556.739 116.447C557.706 117.738 559.319 119.028 561.577 120.641C563.19 121.931 565.448 123.544 568.028 125.479C570.286 127.092 573.189 129.027 576.737 131.285C578.028 131.285 578.35 131.285 578.673 130.963Z" fill="#D71D24"/>
<path d="M621.896 130.963C622.218 131.285 622.541 131.285 622.864 131.285C626.412 129.027 629.315 127.092 631.573 125.479C634.153 123.866 636.089 122.253 638.024 120.641C640.282 119.028 641.895 117.415 642.862 116.447C643.83 115.157 644.798 114.189 645.12 113.222C645.765 114.189 646.41 115.157 647.378 116.447C648.346 117.738 649.959 119.028 652.217 120.641C653.829 121.931 656.087 123.544 658.668 125.479C660.926 127.092 663.829 129.027 667.377 131.285C667.699 131.608 668.345 131.285 668.345 130.963L670.602 127.737C670.925 127.414 670.602 126.769 670.28 126.769C667.377 124.834 664.796 123.221 662.861 121.931C660.603 120.641 658.668 119.028 657.055 117.738C654.797 116.125 653.184 114.512 651.894 113.222C650.604 111.931 649.636 110.641 648.991 109.674C648.346 108.383 648.023 107.093 647.701 105.803C647.701 104.513 647.378 103.222 647.378 101.61C647.378 101.287 647.701 100.964 648.023 100.964H668.022C668.345 100.964 668.667 100.642 668.667 100.319V96.7711C668.667 96.4486 668.345 96.126 668.022 96.126H648.023C647.701 96.126 647.378 95.8035 647.378 95.4809V87.0943C647.378 86.7718 647.056 86.4492 646.733 86.4492H642.54C642.217 86.4492 641.895 86.7718 641.895 87.0943V95.4809C641.895 95.8035 641.572 96.126 641.249 96.126H621.251C620.928 96.126 620.606 96.4486 620.606 96.7711V100.319C620.606 100.642 620.928 100.964 621.251 100.964H641.249C641.572 100.964 641.895 101.287 641.895 101.61C641.895 103.222 641.895 104.513 641.572 105.803C641.572 107.093 640.927 108.383 640.282 109.674C639.637 110.964 638.669 112.254 637.379 113.222C636.089 114.512 634.476 115.802 632.218 117.738C630.605 119.028 628.67 120.318 626.412 121.931C624.476 123.221 621.896 124.834 618.993 126.769C618.67 127.092 618.348 127.414 618.67 127.737L621.896 130.963Z" fill="#D71D24"/>
<path d="M577.06 210.955V170.958C577.06 170.635 576.738 170.312 576.415 170.312H534.482C534.16 170.312 533.837 170.635 533.837 170.958V210.955C533.837 211.278 534.16 211.6 534.482 211.6H576.415C576.415 211.6 577.06 211.278 577.06 210.955ZM571.254 205.472C571.254 205.794 570.932 206.117 570.609 206.117H539.966C539.643 206.117 539.321 205.794 539.321 205.472V175.796C539.321 175.473 539.643 175.151 539.966 175.151H570.609C570.932 175.151 571.254 175.473 571.254 175.796V205.472Z" fill="#D71D24"/>
<path d="M621.573 210.31C621.896 210.632 622.218 210.632 622.541 210.632C626.089 208.374 628.992 206.439 631.25 204.826C633.831 202.891 636.089 201.601 637.701 199.988C639.959 198.375 641.572 196.762 642.54 195.794C643.507 194.504 644.475 193.537 644.798 192.569C645.443 193.537 646.088 194.504 647.056 195.794C648.023 197.085 649.636 198.375 651.894 199.988C653.507 201.278 655.765 202.891 658.345 204.826C660.926 206.439 663.829 208.374 667.054 210.632C667.377 210.955 668.022 210.632 668.022 210.31L670.28 207.084C670.603 206.761 670.28 206.116 669.957 206.116C667.054 204.181 664.474 202.568 662.539 201.278C660.281 199.665 658.345 198.375 656.732 197.085C654.475 195.472 652.862 193.859 651.571 192.569C650.281 191.279 649.314 189.988 648.668 189.021C648.023 187.73 647.701 186.44 647.378 185.15C647.378 183.86 647.056 182.247 647.056 179.989V171.28C647.056 170.957 646.733 170.635 646.411 170.635H642.217C641.895 170.635 641.572 170.957 641.572 171.28V179.989C641.572 181.924 641.572 183.537 641.25 185.15C641.25 186.44 640.604 187.73 639.959 189.021C639.314 190.311 638.346 191.601 637.056 192.569C635.766 193.859 634.153 195.149 631.895 197.085C630.283 198.375 628.347 199.665 626.089 201.278C624.154 202.568 621.573 204.181 618.67 206.116C618.348 206.439 618.025 206.761 618.348 207.084L621.573 210.31Z" fill="#D71D24"/>
<path d="M591.575 27.7365H608.994C609.316 27.7365 609.639 27.414 609.639 27.0914V23.8658C609.639 23.5433 609.316 23.2207 608.994 23.2207H591.575C591.253 23.2207 590.93 23.5433 590.93 23.8658V27.0914C590.93 27.414 591.253 27.7365 591.575 27.7365Z" fill="#D71D24"/>
<path d="M553.513 75.7983H556.739C557.061 75.7983 557.384 75.4758 557.384 75.1532V57.735C557.384 57.4124 557.061 57.0898 556.739 57.0898H553.513C553.191 57.0898 552.868 57.4124 552.868 57.735V75.1532C552.868 75.4758 553.191 75.7983 553.513 75.7983Z" fill="#D71D24"/>
<path d="M643.83 56.7695C643.508 56.7695 643.185 57.0921 643.185 57.4147V74.8329C643.185 75.1555 643.508 75.478 643.83 75.478H647.056C647.378 75.478 647.701 75.1555 647.701 74.8329V57.4147C647.701 57.0921 647.378 56.7695 647.056 56.7695H643.83Z" fill="#D71D24"/>
<path d="M605.445 58.7031H605.123L600.284 63.5415L595.446 58.7031H595.123L592.866 60.961V61.2836L597.704 66.122L592.866 70.9604V71.283L595.123 73.5409H595.446L600.284 68.7025L605.123 73.5409H605.445L607.703 71.283V70.9604L602.865 66.122L607.703 61.2836V60.961L605.445 58.7031Z" fill="#D71D24"/>
<path d="M595.123 155.152H595.446L600.284 150.314L605.123 155.152H605.445L607.703 152.894V152.572L602.865 147.733L607.703 142.895V142.572L605.445 140.314H605.123L600.284 145.153L595.446 140.314H595.123L592.866 142.572V142.895L597.704 147.733L592.866 152.572V152.894L595.123 155.152Z" fill="#D71D24"/>
<path d="M556.739 157.087C557.061 157.087 557.384 156.765 557.384 156.442V139.024C557.384 138.701 557.061 138.379 556.739 138.379H553.513C553.191 138.379 552.868 138.701 552.868 139.024V156.442C552.868 156.765 553.191 157.087 553.513 157.087H556.739Z" fill="#D71D24"/>
<path d="M643.83 138.379C643.508 138.379 643.185 138.701 643.185 139.024V156.442C643.185 156.765 643.508 157.087 643.83 157.087H647.056C647.378 157.087 647.701 156.765 647.701 156.442V139.024C647.701 138.701 647.378 138.379 647.056 138.379H643.83Z" fill="#D71D24"/>
<path d="M591.575 109.35H608.994C609.316 109.35 609.639 109.027 609.639 108.705V105.479C609.639 105.157 609.316 104.834 608.994 104.834H591.575C591.253 104.834 590.93 105.157 590.93 105.479V108.705C590.93 109.027 591.253 109.35 591.575 109.35Z" fill="#D71D24"/>
<path d="M591.575 190.631H608.994C609.316 190.631 609.639 190.309 609.639 189.986V186.76C609.639 186.438 609.316 186.115 608.994 186.115H591.575C591.253 186.115 590.93 186.438 590.93 186.76V189.986C590.93 190.309 591.253 190.631 591.575 190.631Z" fill="#D71D24"/>
<path d="M75.479 73.2204V83.2198L53.2224 77.0912L37.7395 81.9296V125.153H10.6445V147.732H0.967651V115.476H28.0627V74.8332L52.8998 67.0918L75.479 73.2204Z" fill="#F15A25"/>
<path d="M62.5767 119.349V108.382L92.8974 103.221L102.574 101.608L133.863 96.4473L143.539 94.8345L212.245 83.2223L216.76 82.2546L215.148 72.9004L212.245 73.2229L52.8999 100.318V120.317L62.5767 119.349Z" fill="#F15A25"/>
<path d="M143.539 109.668V94.8306V89.9922H133.862V96.4434V110.959L143.539 109.668Z" fill="#F15A25"/>
<path d="M102.574 114.511V101.609V97.7383H92.8973V103.222V115.802L102.574 114.511Z" fill="#F15A25"/>
<path d="M352.558 111.929V122.251L302.239 103.22V60.3197L277.402 46.7721L271.918 43.5465L267.725 44.5142L221.921 55.1587V177.732H212.245V47.4173L273.208 33.2246L311.916 54.8361V96.4464L352.558 111.929Z" fill="#F15A25"/>
<path d="M328.044 88.0622L366.106 103.222V135.801L290.627 113.867V98.0615L277.402 90.6426L273.208 88.0622L267.725 88.7073L237.082 92.578V102.255L270.95 98.0615L280.95 103.545V121.286L375.783 148.703V96.4487L328.044 77.7402V88.0622Z" fill="#F15A25"/>
<path d="M277.402 38.3848H267.725V93.22H277.402V38.3848Z" fill="#F15A25"/>
<path d="M272.886 112.572V177.729H263.209V122.894L221.921 126.12L217.406 126.442L216.76 116.766L221.921 116.443L272.886 112.572Z" fill="#F15A25"/>
<path d="M375.783 158.058V177.734H366.106V166.445L272.886 156.123L267.402 155.478L268.37 145.801L272.886 146.446L375.783 158.058Z" fill="#F15A25"/>
<path d="M168.377 177.729H158.7V110.636L218.051 104.83L219.018 114.184L168.377 119.345V177.729Z" fill="#F15A25"/>
<path d="M214.502 149.025H189.02V158.702H214.502V149.025Z" fill="#F15A25"/>
<path d="M9.6768 177.73H0V155.796L133.862 152.248V137.41L29.6755 143.538L29.0304 133.862L143.539 127.088V161.602L9.6768 165.15V177.73Z" fill="#F15A25"/>
<path d="M425.134 81.2884L449.649 105.48L425.134 129.672V133.221L453.197 105.48L425.134 77.7402V81.2884Z" fill="#9B9B9B" stroke="#9B9B9B" stroke-width="0.25" stroke-miterlimit="10"/>
<path d="M452.874 105.48L477.389 81.2884V77.7402L449.326 105.48L477.389 133.221V129.672L452.874 105.48Z" fill="#9B9B9B" stroke="#9B9B9B" stroke-width="0.25" stroke-miterlimit="10"/>
</svg>
