<svg width="209" height="66" viewBox="0 0 209 66" fill="none" xmlns="http://www.w3.org/2000/svg">
<path d="M165.1 14.2004C165.2 14.3004 165.3 14.3004 165.4 14.3004C166.5 13.6004 167.4 13.0004 168.1 12.5004C168.9 11.9004 169.6 11.5004 170.1 11.0004C170.8 10.5004 171.3 10.0004 171.6 9.70039C171.9 9.30039 172.2 9.00039 172.3 8.70039C172.5 9.00039 172.7 9.30039 173 9.70039C173.3 10.1004 173.8 10.5004 174.5 11.0004C175 11.4004 175.7 11.9004 176.5 12.5004C177.3 13.0004 178.2 13.6004 179.2 14.3004C179.3 14.4004 179.5 14.3004 179.5 14.2004L180.2 13.2004C180.3 13.1004 180.2 12.9004 180.1 12.9004C179.2 12.3004 178.4 11.8004 177.8 11.4004C177.1 10.9004 176.5 10.5004 176 10.1004C175.3 9.60039 174.8 9.10039 174.4 8.70039C174 8.30039 173.7 7.90039 173.5 7.60039C173.3 7.20039 173.2 6.80039 173.1 6.40039C173.1 6.00039 173 5.50039 173 4.80039V2.10039C173 2.00039 172.9 1.90039 172.8 1.90039H171.5C171.4 1.90039 171.3 2.00039 171.3 2.10039V4.80039C171.3 5.40039 171.3 5.90039 171.2 6.40039C171.2 6.80039 171 7.20039 170.8 7.60039C170.6 8.00039 170.3 8.40039 169.9 8.70039C169.5 9.10039 169 9.50039 168.3 10.1004C167.8 10.5004 167.2 10.9004 166.5 11.4004C165.9 11.8004 165.1 12.3004 164.2 12.9004C164.1 13.0004 164 13.1004 164.1 13.2004L165.1 14.2004Z" fill="#D71D24"/>
<path d="M193.2 14.2004C193.3 14.3004 193.4 14.3004 193.5 14.3004C194.6 13.6004 195.5 13.0004 196.2 12.5004C197 12.0004 197.6 11.5004 198.2 11.0004C198.9 10.5004 199.4 10.0004 199.7 9.70039C200 9.30039 200.3 9.00039 200.4 8.70039C200.6 9.00039 200.8 9.30039 201.1 9.70039C201.4 10.1004 201.9 10.5004 202.6 11.0004C203.1 11.4004 203.8 11.9004 204.6 12.5004C205.3 13.0004 206.2 13.6004 207.3 14.3004C207.4 14.4004 207.6 14.3004 207.6 14.2004L208.3 13.2004C208.4 13.1004 208.3 12.9004 208.2 12.9004C207.3 12.3004 206.5 11.8004 205.9 11.4004C205.2 11.0004 204.6 10.5004 204.1 10.1004C203.4 9.60039 202.9 9.10039 202.5 8.70039C202.1 8.30039 201.8 7.90039 201.6 7.60039C201.4 7.20039 201.3 6.80039 201.2 6.40039C201.2 6.00039 201.1 5.60039 201.1 5.10039C201.1 5.00039 201.2 4.90039 201.3 4.90039H207.5C207.6 4.90039 207.7 4.80039 207.7 4.70039V3.60039C207.7 3.50039 207.6 3.40039 207.5 3.40039H201.3C201.2 3.40039 201.1 3.30039 201.1 3.20039V0.600391C201.1 0.500391 201 0.400391 200.9 0.400391H199.6C199.5 0.400391 199.4 0.500391 199.4 0.600391V3.20039C199.4 3.30039 199.3 3.40039 199.2 3.40039H193C192.9 3.40039 192.8 3.50039 192.8 3.60039V4.70039C192.8 4.80039 192.9 4.90039 193 4.90039H199.2C199.3 4.90039 199.4 5.00039 199.4 5.10039C199.4 5.60039 199.4 6.00039 199.3 6.40039C199.3 6.80039 199.1 7.20039 198.9 7.60039C198.7 8.00039 198.4 8.40039 198 8.70039C197.6 9.10039 197.1 9.50039 196.4 10.1004C195.9 10.5004 195.3 10.9004 194.6 11.4004C194 11.8004 193.2 12.3004 192.3 12.9004C192.2 13.0004 192.1 13.1004 192.2 13.2004L193.2 14.2004Z" fill="#D71D24"/>
<path d="M179.8 41.0002L180.5 40.0002C180.6 39.9002 180.5 39.7002 180.4 39.7002C179.5 39.1002 178.7 38.6002 178.1 38.2002C177.4 37.8002 176.8 37.3002 176.3 36.9002C175.6 36.4002 175.1 35.9002 174.7 35.5002C174.3 35.1002 174 34.7002 173.8 34.4002C173.6 34.0002 173.5 33.6002 173.4 33.2002C173.4 32.8002 173.3 32.4002 173.3 31.9002C173.3 31.8002 173.4 31.7002 173.5 31.7002H179.7C179.8 31.7002 179.9 31.6002 179.9 31.5002V30.4002C179.9 30.3002 179.8 30.2002 179.7 30.2002H173.5C173.4 30.2002 173.3 30.1002 173.3 30.0002V27.4002C173.3 27.3002 173.2 27.2002 173.1 27.2002H171.8C171.7 27.2002 171.6 27.3002 171.6 27.4002V30.0002C171.6 30.1002 171.5 30.2002 171.4 30.2002H165.2C165.1 30.2002 165 30.3002 165 30.4002V31.5002C165 31.6002 165.1 31.7002 165.2 31.7002H171.4C171.5 31.7002 171.6 31.8002 171.6 31.9002C171.6 32.4002 171.6 32.8002 171.5 33.2002C171.5 33.6002 171.3 34.0002 171.1 34.4002C170.9 34.8002 170.6 35.2002 170.2 35.5002C169.8 35.9002 169.3 36.3002 168.6 36.9002C168.1 37.3002 167.5 37.7002 166.8 38.2002C166.2 38.6002 165.4 39.1002 164.5 39.7002C164.4 39.8002 164.3 39.9002 164.4 40.0002L165.1 41.0002C165.2 41.1002 165.3 41.1002 165.4 41.1002C166.5 40.4002 167.4 39.8002 168.1 39.3002C168.9 38.8002 169.5 38.3002 170.1 37.8002C170.8 37.3002 171.3 36.8002 171.6 36.5002C171.9 36.1002 172.2 35.8002 172.3 35.5002C172.5 35.8002 172.7 36.1002 173 36.5002C173.3 36.9002 173.8 37.3002 174.5 37.8002C175 38.2002 175.7 38.7002 176.5 39.3002C177.2 39.8002 178.1 40.4002 179.2 41.1002C179.6 41.1002 179.7 41.1002 179.8 41.0002Z" fill="#D71D24"/>
<path d="M193.2 41.0002C193.3 41.1002 193.4 41.1002 193.5 41.1002C194.6 40.4002 195.5 39.8002 196.2 39.3002C197 38.8002 197.6 38.3002 198.2 37.8002C198.9 37.3002 199.4 36.8002 199.7 36.5002C200 36.1002 200.3 35.8002 200.4 35.5002C200.6 35.8002 200.8 36.1002 201.1 36.5002C201.4 36.9002 201.9 37.3002 202.6 37.8002C203.1 38.2002 203.8 38.7002 204.6 39.3002C205.3 39.8002 206.2 40.4002 207.3 41.1002C207.4 41.2002 207.6 41.1002 207.6 41.0002L208.3 40.0002C208.4 39.9002 208.3 39.7002 208.2 39.7002C207.3 39.1002 206.5 38.6002 205.9 38.2002C205.2 37.8002 204.6 37.3002 204.1 36.9002C203.4 36.4002 202.9 35.9002 202.5 35.5002C202.1 35.1002 201.8 34.7002 201.6 34.4002C201.4 34.0002 201.3 33.6002 201.2 33.2002C201.2 32.8002 201.1 32.4002 201.1 31.9002C201.1 31.8002 201.2 31.7002 201.3 31.7002H207.5C207.6 31.7002 207.7 31.6002 207.7 31.5002V30.4002C207.7 30.3002 207.6 30.2002 207.5 30.2002H201.3C201.2 30.2002 201.1 30.1002 201.1 30.0002V27.4002C201.1 27.3002 201 27.2002 200.9 27.2002H199.6C199.5 27.2002 199.4 27.3002 199.4 27.4002V30.0002C199.4 30.1002 199.3 30.2002 199.2 30.2002H193C192.9 30.2002 192.8 30.3002 192.8 30.4002V31.5002C192.8 31.6002 192.9 31.7002 193 31.7002H199.2C199.3 31.7002 199.4 31.8002 199.4 31.9002C199.4 32.4002 199.4 32.8002 199.3 33.2002C199.3 33.6002 199.1 34.0002 198.9 34.4002C198.7 34.8002 198.4 35.2002 198 35.5002C197.6 35.9002 197.1 36.3002 196.4 36.9002C195.9 37.3002 195.3 37.7002 194.6 38.2002C194 38.6002 193.2 39.1002 192.3 39.7002C192.2 39.8002 192.1 39.9002 192.2 40.0002L193.2 41.0002Z" fill="#D71D24"/>
<path d="M179.3 65.8002V53.4002C179.3 53.3002 179.2 53.2002 179.1 53.2002H166.1C166 53.2002 165.9 53.3002 165.9 53.4002V65.8002C165.9 65.9002 166 66.0002 166.1 66.0002H179.1C179.1 66.0002 179.3 65.9002 179.3 65.8002ZM177.5 64.1002C177.5 64.2002 177.4 64.3002 177.3 64.3002H167.8C167.7 64.3002 167.6 64.2002 167.6 64.1002V54.9002C167.6 54.8002 167.7 54.7002 167.8 54.7002H177.3C177.4 54.7002 177.5 54.8002 177.5 54.9002V64.1002Z" fill="#D71D24"/>
<path d="M193.1 65.6008C193.2 65.7008 193.3 65.7008 193.4 65.7008C194.5 65.0008 195.4 64.4008 196.1 63.9008C196.9 63.3008 197.6 62.9008 198.1 62.4008C198.8 61.9008 199.3 61.4008 199.6 61.1008C199.9 60.7008 200.2 60.4008 200.3 60.1008C200.5 60.4008 200.7 60.7008 201 61.1008C201.3 61.5008 201.8 61.9008 202.5 62.4008C203 62.8008 203.7 63.3008 204.5 63.9008C205.3 64.4008 206.2 65.0008 207.2 65.7008C207.3 65.8008 207.5 65.7008 207.5 65.6008L208.2 64.6008C208.3 64.5008 208.2 64.3008 208.1 64.3008C207.2 63.7008 206.4 63.2008 205.8 62.8008C205.1 62.3008 204.5 61.9008 204 61.5008C203.3 61.0008 202.8 60.5008 202.4 60.1008C202 59.7008 201.7 59.3008 201.5 59.0008C201.3 58.6008 201.2 58.2008 201.1 57.8008C201.1 57.4008 201 56.9008 201 56.2008V53.5008C201 53.4008 200.9 53.3008 200.8 53.3008H199.5C199.4 53.3008 199.3 53.4008 199.3 53.5008V56.2008C199.3 56.8008 199.3 57.3008 199.2 57.8008C199.2 58.2008 199 58.6008 198.8 59.0008C198.6 59.4008 198.3 59.8008 197.9 60.1008C197.5 60.5008 197 60.9008 196.3 61.5008C195.8 61.9008 195.2 62.3008 194.5 62.8008C193.9 63.2008 193.1 63.7008 192.2 64.3008C192.1 64.4008 192 64.5008 192.1 64.6008L193.1 65.6008Z" fill="#D71D24"/>
<path d="M183.8 9.00059H189.2C189.3 9.00059 189.4 8.90058 189.4 8.80058V7.80058C189.4 7.70058 189.3 7.60059 189.2 7.60059H183.8C183.7 7.60059 183.6 7.70058 183.6 7.80058V8.80058C183.6 8.90058 183.7 9.00059 183.8 9.00059Z" fill="#D71D24"/>
<path d="M172 23.9006H173C173.1 23.9006 173.2 23.8006 173.2 23.7006V18.3006C173.2 18.2006 173.1 18.1006 173 18.1006H172C171.9 18.1006 171.8 18.2006 171.8 18.3006V23.7006C171.8 23.8006 171.9 23.9006 172 23.9006Z" fill="#D71D24"/>
<path d="M200 18C199.9 18 199.8 18.1 199.8 18.2V23.6C199.8 23.7 199.9 23.8 200 23.8H201C201.1 23.8 201.2 23.7 201.2 23.6V18.2C201.2 18.1 201.1 18 201 18H200Z" fill="#D71D24"/>
<path d="M188.1 18.6006H188L186.5 20.1006L185 18.6006H184.9L184.2 19.3006V19.4006L185.7 20.9006L184.2 22.4006V22.5006L184.9 23.2006H185L186.5 21.7006L188 23.2006H188.1L188.8 22.5006V22.4006L187.3 20.9006L188.8 19.4006V19.3006L188.1 18.6006Z" fill="#D71D24"/>
<path d="M184.9 48.5004H185L186.5 47.0004L188 48.5004H188.1L188.8 47.8004V47.7004L187.3 46.2004L188.8 44.7004V44.6004L188.1 43.9004H188L186.5 45.4004L185 43.9004H184.9L184.2 44.6004V44.7004L185.7 46.2004L184.2 47.7004V47.8004L184.9 48.5004Z" fill="#D71D24"/>
<path d="M173 49.1008C173.1 49.1008 173.2 49.0008 173.2 48.9008V43.5008C173.2 43.4008 173.1 43.3008 173 43.3008H172C171.9 43.3008 171.8 43.4008 171.8 43.5008V48.9008C171.8 49.0008 171.9 49.1008 172 49.1008H173Z" fill="#D71D24"/>
<path d="M200 43.3008C199.9 43.3008 199.8 43.4008 199.8 43.5008V48.9008C199.8 49.0008 199.9 49.1008 200 49.1008H201C201.1 49.1008 201.2 49.0008 201.2 48.9008V43.5008C201.2 43.4008 201.1 43.3008 201 43.3008H200Z" fill="#D71D24"/>
<path d="M183.8 34.3004H189.2C189.3 34.3004 189.4 34.2004 189.4 34.1004V33.1004C189.4 33.0004 189.3 32.9004 189.2 32.9004H183.8C183.7 32.9004 183.6 33.0004 183.6 33.1004V34.1004C183.6 34.2004 183.7 34.3004 183.8 34.3004Z" fill="#D71D24"/>
<path d="M183.8 59.5006H189.2C189.3 59.5006 189.4 59.4006 189.4 59.3006V58.3006C189.4 58.2006 189.3 58.1006 189.2 58.1006H183.8C183.7 58.1006 183.6 58.2006 183.6 58.3006V59.3006C183.6 59.4006 183.7 59.5006 183.8 59.5006Z" fill="#D71D24"/>
<path d="M23.8 23.1002V26.2002L16.9 24.3002L12.1 25.8002V39.2002H3.70001V46.2002H0.700012V36.2002H9.10001V23.6002L16.8 21.2002L23.8 23.1002Z" fill="#F15A25"/>
<path d="M19.8 37.4V34L29.2001 32.4L32.2001 31.9L41.9001 30.3L44.9001 29.8L66.2 26.2L67.6 25.9L67.1 23L66.2 23.1L16.8 31.5V37.7L19.8 37.4Z" fill="#F15A25"/>
<path d="M44.9 34.3998V29.7998V28.2998H41.9V30.2998V34.7998L44.9 34.3998Z" fill="#F15A25"/>
<path d="M32.2 35.9002V31.9002V30.7002H29.2V32.4002V36.3002L32.2 35.9002Z" fill="#F15A25"/>
<path d="M109.7 35.1002V38.3002L94.1 32.4002V19.1002L86.4 14.9002L84.7 13.9002L83.4 14.2002L69.2 17.5002V55.5002H66.2V15.1002L85.1 10.7002L97.1 17.4002V30.3002L109.7 35.1002Z" fill="#F15A25"/>
<path d="M102.1 27.7L113.9 32.4V42.5L90.5 35.7V30.8L86.4 28.5L85.1 27.7L83.4 27.9L73.9 29.1V32.1L84.4 30.8L87.5 32.5V38L116.9 46.5V30.3L102.1 24.5V27.7Z" fill="#F15A25"/>
<path d="M86.4 12.2998H83.4V29.2998H86.4V12.2998Z" fill="#F15A25"/>
<path d="M85 35.2998V55.4998H82V38.4998L69.2 39.4998L67.8 39.5998L67.6 36.5998L69.2 36.4998L85 35.2998Z" fill="#F15A25"/>
<path d="M116.9 49.4006V55.5006H113.9V52.0006L85 48.8006L83.3 48.6006L83.6 45.6006L85 45.8006L116.9 49.4006Z" fill="#F15A25"/>
<path d="M52.6 55.5004H49.6V34.7004L68 32.9004L68.3 35.8004L52.6 37.4004V55.5004Z" fill="#F15A25"/>
<path d="M66.9 46.6006H59V49.6006H66.9V46.6006Z" fill="#F15A25"/>
<path d="M3.40002 55.4998H0.400024V48.6998L41.9 47.5998V42.9998L9.60003 44.8998L9.40002 41.8998L44.9 39.7998V50.4998L3.40002 51.5998V55.4998Z" fill="#F15A25"/>
<path d="M132.2 25.6L139.8 33.1L132.2 40.6V41.7L140.9 33.1L132.2 24.5V25.6Z" fill="#9B9B9B" stroke="#9B9B9B" stroke-width="0.25" stroke-miterlimit="10"/>
<path d="M140.8 33.1L148.4 25.6V24.5L139.7 33.1L148.4 41.7V40.6L140.8 33.1Z" fill="#9B9B9B" stroke="#9B9B9B" stroke-width="0.25" stroke-miterlimit="10"/>
</svg>
