<svg width="81" height="80" viewBox="0 0 81 80" fill="none" xmlns="http://www.w3.org/2000/svg">
<path d="M68.8333 80.0003H12.1667C11.2467 80.0003 10.5 79.2537 10.5 78.3337V68.3337C10.5 67.4137 11.2467 66.667 12.1667 66.667H68.8333C69.7533 66.667 70.5 67.4137 70.5 68.3337V78.3337C70.5 79.2537 69.7533 80.0003 68.8333 80.0003ZM13.8333 76.667H67.1667V70.0003H13.8333V76.667Z" fill="black"/>
<path d="M68.8333 70H12.1667C9.40999 70 7.16666 67.7567 7.16666 65V10C7.16666 4.485 11.6517 0 17.1667 0H63.8333C69.3483 0 73.8333 4.485 73.8333 10V65C73.8333 67.7567 71.59 70 68.8333 70ZM17.1667 3.33333C13.49 3.33333 10.5 6.32333 10.5 10V65C10.5 65.9183 11.2483 66.6667 12.1667 66.6667H68.8333C69.7517 66.6667 70.5 65.9183 70.5 65V10C70.5 6.32333 67.51 3.33333 63.8333 3.33333H17.1667Z" fill="black"/>
<path d="M61.6533 50.0003H19.3466C16.3066 50.0003 13.8333 47.8937 13.8333 45.3037V11.3637C13.8333 8.77366 16.3066 6.66699 19.3466 6.66699H61.655C64.6933 6.66699 67.1666 8.77366 67.1666 11.3637V45.302C67.1666 47.8937 64.6933 50.0003 61.6533 50.0003ZM19.3466 10.0003C18.0616 10.0003 17.1666 10.7187 17.1666 11.3637V45.302C17.1666 45.9487 18.0616 46.667 19.3466 46.667H61.655C62.9383 46.667 63.8333 45.9487 63.8333 45.3037V11.3637C63.8333 10.7187 62.9383 10.0003 61.6533 10.0003H19.3466Z" fill="black"/>
<path d="M23.8333 60.0003H17.1667C16.2467 60.0003 15.5 59.2537 15.5 58.3337C15.5 57.4137 16.2467 56.667 17.1667 56.667H23.8333C24.7533 56.667 25.5 57.4137 25.5 58.3337C25.5 59.2537 24.7533 60.0003 23.8333 60.0003Z" fill="black"/>
<path d="M63.8333 60.0003H47.1667C46.2467 60.0003 45.5 59.2537 45.5 58.3337C45.5 57.4137 46.2467 56.667 47.1667 56.667H63.8333C64.7533 56.667 65.5 57.4137 65.5 58.3337C65.5 59.2537 64.7533 60.0003 63.8333 60.0003Z" fill="black"/>
<path d="M28.8333 26.667C27.9133 26.667 27.1667 25.9203 27.1667 25.0003V18.3337C27.1667 17.4137 27.9133 16.667 28.8333 16.667C29.7533 16.667 30.5 17.4137 30.5 18.3337V25.0003C30.5 25.9203 29.7533 26.667 28.8333 26.667Z" fill="black"/>
<path d="M52.1667 26.667C51.2467 26.667 50.5 25.9203 50.5 25.0003V18.3337C50.5 17.4137 51.2467 16.667 52.1667 16.667C53.0867 16.667 53.8333 17.4137 53.8333 18.3337V25.0003C53.8333 25.9203 53.0867 26.667 52.1667 26.667Z" fill="black"/>
<path d="M42.1667 33.3333H38.8333C37.9133 33.3333 37.1667 32.5867 37.1667 31.6667C37.1667 30.7467 37.9133 30 38.8333 30H40.5V21.6667C40.5 20.7467 41.2467 20 42.1667 20C43.0867 20 43.8333 20.7467 43.8333 21.6667V31.6667C43.8333 32.5867 43.0867 33.3333 42.1667 33.3333Z" fill="black"/>
<path d="M45.5 43.3337H35.5C32.7433 43.3337 30.5 41.0903 30.5 38.3337C30.5 37.4137 31.2467 36.667 32.1667 36.667C33.0867 36.667 33.8333 37.4137 33.8333 38.3337C33.8333 39.252 34.5817 40.0003 35.5 40.0003H45.5C46.4183 40.0003 47.1667 39.252 47.1667 38.3337C47.1667 37.4137 47.9133 36.667 48.8333 36.667C49.7533 36.667 50.5 37.4137 50.5 38.3337C50.5 41.0903 48.2567 43.3337 45.5 43.3337Z" fill="black"/>
</svg>
