<svg width="80" height="80" viewBox="0 0 80 80" fill="none" xmlns="http://www.w3.org/2000/svg">
<path d="M73.3333 76.6667H6.66667C2.99 76.6667 0 73.6767 0 70V26.6667C0 22.99 2.99 20 6.66667 20H73.3333C77.01 20 80 22.99 80 26.6667V70C80 73.6767 77.01 76.6667 73.3333 76.6667ZM6.66667 23.3333C4.82833 23.3333 3.33333 24.8283 3.33333 26.6667V70C3.33333 71.8383 4.82833 73.3333 6.66667 73.3333H73.3333C75.1717 73.3333 76.6667 71.8383 76.6667 70V26.6667C76.6667 24.8283 75.1717 23.3333 73.3333 23.3333H6.66667Z" fill="black"/>
<path d="M53.3333 15.0003H50V11.667C50 10.747 49.2517 10.0003 48.3333 10.0003H31.6667C30.7483 10.0003 30 10.747 30 11.667V15.0003H26.6667V11.667C26.6667 8.91033 28.91 6.66699 31.6667 6.66699H48.3333C51.09 6.66699 53.3333 8.91033 53.3333 11.667V15.0003Z" fill="black"/>
<path d="M66.6667 36.6673H11.6667C10.7467 36.6673 10 35.9223 10 35.0007C10 34.079 10.7467 33.334 11.6667 33.334H66.6667C67.5867 33.334 68.3333 34.079 68.3333 35.0007C68.3333 35.9223 67.5867 36.6673 66.6667 36.6673Z" fill="black"/>
<path d="M66.6667 50.0003H11.6667C10.7467 50.0003 10 49.2553 10 48.3337C10 47.412 10.7467 46.667 11.6667 46.667H66.6667C67.5867 46.667 68.3333 47.412 68.3333 48.3337C68.3333 49.2553 67.5867 50.0003 66.6667 50.0003Z" fill="black"/>
<path d="M66.6667 63.3333H11.6667C10.7467 63.3333 10 62.5883 10 61.6667C10 60.745 10.7467 60 11.6667 60H66.6667C67.5867 60 68.3333 60.745 68.3333 61.6667C68.3333 62.5883 67.5867 63.3333 66.6667 63.3333Z" fill="black"/>
<path d="M30 15H26.6667V21.6667H30V15Z" fill="black"/>
<path d="M53.3333 15H50V21.6667H53.3333V15Z" fill="black"/>
<path d="M51.6667 13.334H28.3333V16.6673H51.6667V13.334Z" fill="black"/>
</svg>
