<svg width="81" height="80" viewBox="0 0 81 80" fill="none" xmlns="http://www.w3.org/2000/svg">
<g clip-path="url(#clip0_1_877)">
<path d="M55.5 66.667H8.83334C6.07668 66.667 3.83334 64.4237 3.83334 61.667V31.667C3.83334 28.9103 6.07668 26.667 8.83334 26.667H55.5C58.2567 26.667 60.5 28.9103 60.5 31.667V61.667C60.5 64.4237 58.2567 66.667 55.5 66.667ZM8.83334 30.0003C7.91334 30.0003 7.16668 30.7487 7.16668 31.667V61.667C7.16668 62.5853 7.91334 63.3337 8.83334 63.3337H55.5C56.42 63.3337 57.1667 62.5853 57.1667 61.667V31.667C57.1667 30.7487 56.42 30.0003 55.5 30.0003H8.83334Z" fill="black"/>
<path d="M20.5 55.0003C16.8233 55.0003 13.8333 52.0103 13.8333 48.3337C13.8333 44.657 16.8233 41.667 20.5 41.667C24.1767 41.667 27.1667 44.657 27.1667 48.3337C27.1667 52.0103 24.1767 55.0003 20.5 55.0003ZM20.5 45.0003C18.6617 45.0003 17.1667 46.4953 17.1667 48.3337C17.1667 50.172 18.6617 51.667 20.5 51.667C22.3383 51.667 23.8333 50.172 23.8333 48.3337C23.8333 46.4953 22.3383 45.0003 20.5 45.0003Z" fill="black"/>
<path d="M43.8333 55.0003C40.1567 55.0003 37.1667 52.0103 37.1667 48.3337C37.1667 44.657 40.1567 41.667 43.8333 41.667C47.51 41.667 50.5 44.657 50.5 48.3337C50.5 52.0103 47.51 55.0003 43.8333 55.0003ZM43.8333 45.0003C41.995 45.0003 40.5 46.4953 40.5 48.3337C40.5 50.172 41.995 51.667 43.8333 51.667C45.6717 51.667 47.1667 50.172 47.1667 48.3337C47.1667 46.4953 45.6717 45.0003 43.8333 45.0003Z" fill="black"/>
<path d="M43.8333 45.0003H20.5C19.5783 45.0003 18.8333 44.2537 18.8333 43.3337C18.8333 42.4137 19.5783 41.667 20.5 41.667H43.8333C44.755 41.667 45.5 42.4137 45.5 43.3337C45.5 44.2537 44.755 45.0003 43.8333 45.0003Z" fill="black"/>
<path d="M38.8333 30.0003C37.9117 30.0003 37.1667 29.2537 37.1667 28.3337V21.667C37.1667 20.7487 36.42 20.0003 35.5 20.0003H2.16667C1.245 20.0003 0.5 19.2537 0.5 18.3337C0.5 17.4137 1.245 16.667 2.16667 16.667H35.5C38.2567 16.667 40.5 18.9103 40.5 21.667V28.3337C40.5 29.2537 39.755 30.0003 38.8333 30.0003Z" fill="black"/>
<path d="M52.1667 29.9997C51.245 29.9997 50.5 29.253 50.5 28.333V18.333C50.5 15.5763 52.7433 13.333 55.5 13.333H62.1667C63.0883 13.333 63.8333 14.0797 63.8333 14.9997C63.8333 15.9197 63.0883 16.6663 62.1667 16.6663H55.5C54.58 16.6663 53.8333 17.4147 53.8333 18.333V28.333C53.8333 29.253 53.0883 29.9997 52.1667 29.9997Z" fill="black"/>
<path d="M75.5 20H65.5C62.7433 20 60.5 17.7567 60.5 15C60.5 12.2433 62.7433 10 65.5 10H75.5C78.2567 10 80.5 12.2433 80.5 15C80.5 17.7567 78.2567 20 75.5 20ZM65.5 13.3333C64.58 13.3333 63.8333 14.0817 63.8333 15C63.8333 15.9183 64.58 16.6667 65.5 16.6667H75.5C76.42 16.6667 77.1667 15.9183 77.1667 15C77.1667 14.0817 76.42 13.3333 75.5 13.3333H65.5Z" fill="black"/>
<path d="M77.0383 62.4371C76.5883 62.4371 76.1367 62.3487 75.7083 62.1704L58.1917 54.8721C57.3417 54.5187 56.94 53.5421 57.295 52.6921C57.65 51.8421 58.63 51.4421 59.475 51.7954L76.99 59.0937L77.1667 58.9754V37.6921L76.3483 36.0354L76.99 37.5737L59.475 44.8721C58.6283 45.2287 57.65 44.8254 57.295 43.9754C56.94 43.1254 57.3417 42.1504 58.1917 41.7954L75.7067 34.4971C76.775 34.0487 77.9933 34.1671 78.9583 34.8121C79.9233 35.4571 80.5 36.5337 80.5 37.6921V58.9754C80.5 60.1337 79.9233 61.2104 78.96 61.8554C78.3817 62.2404 77.7117 62.4371 77.0383 62.4371Z" fill="black"/>
</g>
<defs>
<clipPath id="clip0_1_877">
<rect width="80" height="80" fill="white" transform="translate(0.5)"/>
</clipPath>
</defs>
</svg>
