<svg width="80" height="80" viewBox="0 0 80 80" fill="none" xmlns="http://www.w3.org/2000/svg">
<path d="M73.3333 53.3333H6.66667V40C6.66667 36.3233 9.65667 33.3333 13.3333 33.3333H30.0767C30.6317 33.3333 31.1467 33.06 31.4567 32.6017C31.7667 32.1433 31.83 31.5617 31.625 31.0483C30.5467 28.355 30 25.5183 30 22.615V10C30 4.485 34.485 0 40 0C45.515 0 50 4.485 50 10V22.615C50 25.5167 49.4533 28.3533 48.375 31.0467C48.17 31.5617 48.2333 32.1417 48.5433 32.6C48.8533 33.0583 49.37 33.3333 49.9233 33.3333H66.6667C70.3433 33.3333 73.3333 36.3233 73.3333 40V53.3333ZM10 50H70V40C70 38.1617 68.505 36.6667 66.6667 36.6667H49.9233C48.2617 36.6667 46.7133 35.845 45.7833 34.47C44.8533 33.095 44.665 31.3517 45.2817 29.81C46.2 27.5117 46.6667 25.0917 46.6667 22.615V10C46.6667 6.32333 43.6767 3.33333 40 3.33333C36.3233 3.33333 33.3333 6.32333 33.3333 10V22.615C33.3333 25.09 33.8 27.5117 34.7183 29.8083C35.3367 31.35 35.1483 33.0933 34.2167 34.4683C33.285 35.8433 31.7383 36.6667 30.0767 36.6667H13.3333C11.495 36.6667 10 38.1617 10 40V50Z" fill="black"/>
<path d="M68.3333 80H26.6667C26.225 80 25.8 79.825 25.4883 79.5117C25.1767 79.1983 25 78.775 25 78.3333V72.06L21.4917 79.0783C21.2083 79.6433 20.63 80 20 80H11.6667C10.7467 80 10 79.2533 10 78.3333V51.6667C10 50.7467 10.7467 50 11.6667 50H68.3333C69.2533 50 70 50.7467 70 51.6667V78.3333C70 79.2533 69.2533 80 68.3333 80ZM28.3333 76.6667H66.6667V53.3333H13.3333V76.6667H18.9683L25.175 64.255C25.5217 63.5633 26.2983 63.2033 27.05 63.3783C27.8017 63.555 28.3333 64.2267 28.3333 65V76.6667Z" fill="black"/>
<path d="M61.6667 80C60.7467 80 60 79.2533 60 78.3333V61.6667C60 60.7467 60.7467 60 61.6667 60C62.5867 60 63.3333 60.7467 63.3333 61.6667V78.3333C63.3333 79.2533 62.5867 80 61.6667 80Z" fill="black"/>
<path d="M55 79.9997C54.08 79.9997 53.3333 79.253 53.3333 78.333V64.9997C53.3333 64.0797 54.08 63.333 55 63.333C55.92 63.333 56.6667 64.0797 56.6667 64.9997V78.333C56.6667 79.253 55.92 79.9997 55 79.9997Z" fill="black"/>
<path d="M48.3333 79.9997C47.4133 79.9997 46.6667 79.253 46.6667 78.333V69.9997C46.6667 69.0797 47.4133 68.333 48.3333 68.333C49.2533 68.333 50 69.0797 50 69.9997V78.333C50 79.253 49.2533 79.9997 48.3333 79.9997Z" fill="black"/>
<path d="M40 13.3337C41.841 13.3337 43.3333 11.8413 43.3333 10.0003C43.3333 8.15938 41.841 6.66699 40 6.66699C38.1591 6.66699 36.6667 8.15938 36.6667 10.0003C36.6667 11.8413 38.1591 13.3337 40 13.3337Z" fill="black"/>
</svg>
