<svg width="81" height="80" viewBox="0 0 81 80" fill="none" xmlns="http://www.w3.org/2000/svg">
<g clip-path="url(#clip0_1_896)">
<path d="M68.8333 61.666H12.1667C11.245 61.666 10.5 60.9193 10.5 59.9993V23.3327C10.5 22.4127 11.245 21.666 12.1667 21.666H17.1667V24.9993H13.8333V58.3327H67.1667V51.666H70.5V59.9993C70.5 60.9193 69.755 61.666 68.8333 61.666Z" fill="black"/>
<path d="M78.8333 48.333H22.1667C21.245 48.333 20.5 47.5863 20.5 46.6663V9.99967C20.5 9.07967 21.245 8.33301 22.1667 8.33301H78.8333C79.755 8.33301 80.5 9.07967 80.5 9.99967V46.6663C80.5 47.5863 79.755 48.333 78.8333 48.333ZM23.8333 44.9997H77.1667V11.6663H23.8333V44.9997Z" fill="black"/>
<path d="M58.8333 75H2.16667C1.245 75 0.5 74.2533 0.5 73.3333V36.6667C0.5 35.7467 1.245 35 2.16667 35H7.16667V38.3333H3.83333V71.6667H57.1667V65H60.5V73.3333C60.5 74.2533 59.755 75 58.8333 75Z" fill="black"/>
</g>
<defs>
<clipPath id="clip0_1_896">
<rect width="80" height="80" fill="white" transform="translate(0.5)"/>
</clipPath>
</defs>
</svg>
