<svg width="80" height="80" viewBox="0 0 80 80" fill="none" xmlns="http://www.w3.org/2000/svg">
<path d="M51.6667 29.9997H28.3333V13.333H51.6667V29.9997ZM31.6667 26.6663H48.3333V16.6663H31.6667V26.6663Z" fill="black"/>
<path d="M68.3333 80H8.33333V0H68.3333V80ZM11.6667 76.6667H65V3.33333H11.6667V76.6667Z" fill="black"/>
<path d="M75 21.667H66.6667V25.0003H75V21.667Z" fill="black"/>
<path d="M75 35H66.6667V38.3333H75V35Z" fill="black"/>
<path d="M75 48.333H66.6667V51.6663H75V48.333Z" fill="black"/>
<path d="M70 64.9997H66.6667V61.6663H70C71.8383 61.6663 73.3333 60.1713 73.3333 58.333V14.9997C73.3333 13.1613 71.8383 11.6663 70 11.6663H66.6667V8.33301H70C73.6767 8.33301 76.6667 11.323 76.6667 14.9997V58.333C76.6667 62.0097 73.6767 64.9997 70 64.9997Z" fill="black"/>
<path d="M15 13.333H5V16.6663H15V13.333Z" fill="black"/>
<path d="M15 23.333H5V26.6663H15V23.333Z" fill="black"/>
<path d="M15 33.333H5V36.6663H15V33.333Z" fill="black"/>
<path d="M15 43.333H5V46.6663H15V43.333Z" fill="black"/>
<path d="M15 53.333H5V56.6663H15V53.333Z" fill="black"/>
<path d="M15 63.333H5V66.6663H15V63.333Z" fill="black"/>
</svg>
