<svg width="60" height="60" viewBox="0 0 60 60" fill="none" xmlns="http://www.w3.org/2000/svg">
<path d="M5 15C5 14.337 5.26339 13.7011 5.73223 13.2322C6.20107 12.7634 6.83696 12.5 7.5 12.5H52.5C53.163 12.5 53.7989 12.7634 54.2678 13.2322C54.7366 13.7011 55 14.337 55 15C55 15.663 54.7366 16.2989 54.2678 16.7678C53.7989 17.2366 53.163 17.5 52.5 17.5H7.5C6.83696 17.5 6.20107 17.2366 5.73223 16.7678C5.26339 16.2989 5 15.663 5 15ZM5 30.08C5 29.417 5.26339 28.7811 5.73223 28.3122C6.20107 27.8434 6.83696 27.58 7.5 27.58H52.5C53.163 27.58 53.7989 27.8434 54.2678 28.3122C54.7366 28.7811 55 29.417 55 30.08C55 30.743 54.7366 31.3789 54.2678 31.8478C53.7989 32.3166 53.163 32.58 52.5 32.58H7.5C6.83696 32.58 6.20107 32.3166 5.73223 31.8478C5.26339 31.3789 5 30.743 5 30.08ZM7.5 42.6625C6.83696 42.6625 6.20107 42.9259 5.73223 43.3947C5.26339 43.8636 5 44.4995 5 45.1625C5 45.8255 5.26339 46.4614 5.73223 46.9303C6.20107 47.3991 6.83696 47.6625 7.5 47.6625H52.5C53.163 47.6625 53.7989 47.3991 54.2678 46.9303C54.7366 46.4614 55 45.8255 55 45.1625C55 44.4995 54.7366 43.8636 54.2678 43.3947C53.7989 42.9259 53.163 42.6625 52.5 42.6625H7.5Z" fill="black"/>
</svg>
