<svg width="188" height="80" viewBox="0 0 188 80" fill="none" xmlns="http://www.w3.org/2000/svg">
<path d="M174.24 23.0704C172.914 22.2405 169.764 20.2488 168.769 19.5849C167.774 18.921 166.862 18.2571 166.034 17.6762C165.039 16.9293 164.21 16.1824 163.713 15.6015C163.132 15.0206 162.718 14.4396 162.469 13.9417C162.22 13.3608 161.972 12.7799 161.972 12.199C161.889 11.5351 161.889 10.7882 161.889 9.87533V4.39815C161.889 4.23218 161.723 4.0662 161.557 4.0662H159.568C159.402 4.0662 159.236 4.23218 159.236 4.39815V9.95832C159.236 10.8712 159.236 11.6181 159.153 12.282C159.071 12.9459 158.905 13.5268 158.656 14.0247C158.407 14.6056 157.91 15.1035 157.413 15.6845C156.832 16.2654 156.086 16.9293 155.092 17.7591C154.346 18.3401 153.434 19.004 152.356 19.6679C151.444 20.3318 150.284 21.0787 148.875 21.9085C148.295 22.2405 148.046 22.4065 147.797 22.5724C147.383 22.8214 147.051 22.7384 146.637 22.5724C146.305 22.4065 145.31 21.8255 145.228 21.7426C144.813 21.4936 144.73 21.1616 144.73 20.9127V5.394C144.73 5.22803 144.564 5.06205 144.399 5.06205H123.924C123.758 5.06205 123.593 5.22803 123.593 5.394V20.8297C123.593 21.0787 123.51 21.4106 123.095 21.6596C122.847 21.8255 122.018 22.3235 121.686 22.4894C121.355 22.6554 121.023 22.8214 120.526 22.4894C120.194 22.3235 120.028 22.1575 119.448 21.8255C118.122 20.9957 116.961 20.2488 116.049 19.6679C115.055 19.004 114.143 18.4231 113.397 17.7591C112.402 17.0123 111.573 16.3484 111.076 15.7674C110.496 15.1865 110.081 14.6056 109.832 14.1077C109.584 13.5268 109.335 12.9459 109.335 12.365C109.252 11.784 109.252 11.2031 109.252 10.4562C109.252 10.2903 109.418 10.1243 109.584 10.1243H118.536C118.702 10.1243 118.868 9.95832 118.868 9.79234V8.13259C118.868 7.96662 118.702 7.80064 118.536 7.80064H109.335C109.169 7.80064 109.004 7.63467 109.004 7.46869V3.56828C109.004 3.4023 108.838 3.23633 108.672 3.23633H106.683C106.517 3.23633 106.351 3.4023 106.351 3.56828V7.46869C106.351 7.63467 106.185 7.80064 106.019 7.80064H96.9013C96.7355 7.80064 96.5697 7.96662 96.5697 8.13259V9.70936C96.5697 9.87533 96.7355 10.0413 96.9013 10.0413H106.019C106.185 10.0413 106.351 10.2073 106.351 10.3733C106.351 11.1201 106.268 11.7011 106.268 12.282C106.185 12.9459 106.019 13.5268 105.771 14.0247C105.522 14.6056 105.025 15.1035 104.527 15.6845C103.947 16.2654 103.201 16.9293 102.206 17.6762C101.46 18.2571 100.549 18.921 99.5538 19.5849C99.0565 19.9168 98.5591 20.2488 97.9789 20.5807C97.9789 20.5807 95.4092 22.2405 95.0776 22.4065C94.746 22.5724 94.4145 22.7384 94 22.4894C93.5856 22.2405 94.2487 22.6554 92.8395 21.7426C91.5132 20.9127 90.4356 20.1658 89.5238 19.5849C88.5291 18.921 87.6173 18.3401 86.8713 17.6762C85.8766 16.9293 85.0476 16.2654 84.5503 15.6845C83.97 15.1035 83.5556 14.5226 83.3069 14.0247C83.0582 13.4438 82.8095 12.8629 82.8095 12.282C82.7267 11.7011 82.7267 11.1201 82.7267 10.3733C82.7267 10.2073 82.8924 10.0413 83.0582 10.0413H92.2593C92.4251 10.0413 92.5908 9.87533 92.5908 9.70936V8.13259C92.5908 7.96662 92.4251 7.80064 92.2593 7.80064H82.7267C82.5609 7.80064 82.3951 7.63467 82.3951 7.46869V3.56828C82.3951 3.4023 82.2293 3.23633 82.0635 3.23633H80.0741C79.9083 3.23633 79.7425 3.4023 79.7425 3.56828V7.46869C79.7425 7.63467 79.5767 7.80064 79.411 7.80064H70.2928C70.127 7.80064 69.9612 7.96662 69.9612 8.13259V9.70936C69.9612 9.87533 70.127 10.0413 70.2928 10.0413H79.411C79.5767 10.0413 79.7425 10.2073 79.7425 10.3733C79.7425 11.1201 79.6596 11.7011 79.6596 12.282C79.5767 12.9459 79.411 13.5268 79.1623 14.0247C78.9136 14.6056 78.4162 15.1035 77.9189 15.6845C77.3386 16.2654 76.5926 16.9293 75.5979 17.6762C74.8519 18.2571 73.9401 18.921 72.9453 19.5849C72.3651 19.9998 71.6191 20.4977 70.7901 20.9957C69.9612 21.4936 68.7178 22.3235 68.4692 22.4065C68.1376 22.5724 67.806 22.7384 67.3916 22.4894C67.06 22.3235 66.9771 22.2405 66.2311 21.8255C66.1482 21.7426 66.0653 21.7426 65.9824 21.6596C65.8166 21.5766 65.7337 21.4936 65.485 21.3276C64.4903 20.6637 63.5785 20.0828 62.8325 19.5849C61.8378 18.921 60.9259 18.3401 60.1799 17.6762C59.1852 16.9293 58.3563 16.2654 57.8589 15.6845C57.2787 15.1035 56.8642 14.5226 56.6155 14.0247C56.3669 13.4438 56.1182 12.8629 56.1182 12.282C56.0353 11.7011 56.0353 11.1201 56.0353 10.3733C56.0353 10.2073 56.2011 10.0413 56.3669 10.0413H65.5679C65.7337 10.0413 65.8995 9.87533 65.8995 9.70936V8.13259C65.8995 7.96662 65.7337 7.80064 65.5679 7.80064H56.1182C55.9524 7.80064 55.7866 7.63467 55.7866 7.46869V3.56828C55.7866 3.4023 55.6208 3.23633 55.455 3.23633H53.4656C53.2998 3.23633 53.1341 3.4023 53.1341 3.56828V7.46869C53.1341 7.63467 52.9683 7.80064 52.8025 7.80064H43.6843C43.5185 7.80064 43.3527 7.96662 43.3527 8.13259V9.70936C43.3527 9.87533 43.5185 10.0413 43.6843 10.0413H52.8025C52.9683 10.0413 53.1341 10.2073 53.1341 10.3733C53.1341 11.1201 53.0512 11.7011 53.0512 12.282C52.9683 12.9459 52.8025 13.5268 52.5538 14.0247C52.3051 14.6056 51.8078 15.1035 51.3104 15.6845C50.7302 16.2654 49.9841 16.9293 48.9894 17.6762C48.2434 18.2571 47.3316 18.921 46.3369 19.5849C45.8395 19.9168 45.3422 20.2488 44.7619 20.5807C44.679 20.6637 42.1923 22.2405 41.8607 22.4065C41.5291 22.5724 41.1975 22.7384 40.7831 22.4894C40.4515 22.3235 40.3686 22.2405 39.6226 21.8255C38.2963 20.9957 37.1358 20.2488 36.1411 19.5849C35.1464 18.921 34.2346 18.2571 33.4057 17.6762C32.411 16.9293 31.582 16.1824 31.0847 15.6015C30.5044 15.0206 30.09 14.4396 29.8413 13.9417C29.5926 13.3608 29.3439 12.7799 29.3439 12.199C29.0124 11.6181 29.0124 10.7882 29.0124 9.95832V4.31517C29.0124 4.14919 28.8466 3.98322 28.6808 3.98322H26.6914C26.5256 3.98322 26.3598 4.14919 26.3598 4.31517V9.95832C26.3598 10.8712 26.3598 11.6181 26.2769 12.282C26.194 12.9459 26.0282 13.5268 25.7796 14.0247C25.5309 14.6056 25.0335 15.1035 24.5362 15.6845C23.9559 16.2654 23.2099 16.9293 22.2152 17.7591C21.4692 18.3401 20.5573 19.004 19.4797 19.6679C18.5679 20.3318 15.2522 22.4065 13.9259 23.2363C13.7602 23.3193 13.6773 23.5683 13.8431 23.7343L14.9207 25.228C15.0035 25.394 15.2522 25.394 15.418 25.311C16.993 24.2322 20.4744 22.0745 21.552 21.2446C22.7125 20.4148 23.7072 19.6679 24.5362 19.087C25.5309 18.3401 26.2769 17.6762 26.7743 17.0953C27.2716 16.5973 27.6032 16.0994 27.8519 15.6845C28.1005 16.0994 28.4321 16.5973 28.9295 17.0953C29.4268 17.5932 30.1729 18.2571 31.1676 19.087C31.9965 19.7509 32.9912 20.4148 34.1517 21.2446C35.0635 21.9085 36.1411 22.6554 37.3845 23.4853C37.3845 23.4853 39.5397 24.8961 40.1199 25.311C40.9489 25.8089 41.8607 25.8089 42.5238 25.311C42.8554 25.0621 43.6014 24.5641 44.3475 24.0662C45.0106 23.6513 45.5908 23.2363 46.0882 22.9044C46.9171 22.3235 47.5803 21.8255 48.2434 21.4106C49.4039 20.5807 50.3986 19.9168 51.1446 19.2529C52.1393 18.506 52.8854 17.8421 53.3827 17.2612C53.8801 16.7633 54.2117 16.2654 54.4603 15.8504C54.709 16.2654 55.0406 16.7633 55.5379 17.2612C56.0353 17.7591 56.7813 18.4231 57.776 19.2529C58.605 19.9168 59.5168 20.5807 60.6773 21.4106C61.7549 22.1575 63.0811 23.0704 64.6561 24.0662C65.3192 24.4811 66.2311 25.145 66.5626 25.311C67.3916 25.8089 68.3034 25.8089 68.9665 25.311C69.2981 25.0621 70.0441 24.5641 70.7901 24.0662C71.2046 23.7343 71.6191 23.4853 72.0335 23.2363C72.3651 22.9874 72.5309 22.9044 72.5309 22.9044C73.3598 22.3235 74.0229 21.9085 74.6861 21.4106C75.8466 20.5807 76.8413 19.9168 77.5873 19.2529C78.582 18.506 79.3281 17.8421 79.8254 17.2612C80.3228 16.7633 80.6543 16.2654 80.903 15.8504C81.1517 16.2654 81.4833 16.7633 81.9806 17.2612C82.478 17.7591 83.224 18.4231 84.2187 19.2529C85.0476 19.9168 85.9595 20.5807 87.1199 21.4106C88.1975 22.1575 89.5238 23.0704 91.0988 24.0662C91.7619 24.5641 92.6737 25.145 93.0053 25.311C93.8342 25.8089 94.746 25.8089 95.4092 25.311C95.7408 25.0621 96.4868 24.5641 97.2328 24.0662C98.8078 22.9874 100.134 22.1575 101.212 21.4106C102.372 20.5807 103.367 19.9168 104.113 19.2529C105.108 18.506 105.854 17.8421 106.351 17.2612C106.848 16.7633 107.18 16.2654 107.429 15.8504C107.677 16.2654 108.009 16.7633 108.506 17.2612C109.004 17.7591 109.75 18.4231 110.744 19.2529C111.573 19.9168 112.485 20.5807 113.646 21.4106C114.474 21.9915 115.552 22.7384 116.713 23.4853C117.044 23.7343 118.951 24.9791 119.448 25.394C120.277 25.8919 121.189 25.8919 121.852 25.394C122.515 24.8961 124.09 23.9832 124.09 23.9832C125.748 22.9874 125.748 20.9957 125.748 20.9957V7.71766C125.748 7.55168 125.914 7.38571 126.079 7.38571H141.249C141.414 7.38571 141.58 7.55168 141.58 7.71766V20.8297C141.58 20.8297 141.663 22.8214 143.321 23.9002C143.653 24.0662 144.896 24.8961 145.476 25.311C146.139 25.8089 147.051 25.8089 147.88 25.311C148.295 25.0621 149.289 24.3982 149.787 23.9832C149.869 23.9832 149.869 23.9002 149.952 23.9002C150.118 23.8172 150.201 23.7343 150.201 23.7343C151.61 22.8214 152.771 21.9915 153.765 21.3276C154.926 20.4977 155.921 19.7509 156.75 19.1699C157.744 18.4231 158.49 17.7592 158.988 17.1782C159.485 16.6803 159.817 16.1824 160.065 15.7674C160.314 16.1824 160.646 16.6803 161.143 17.1782C161.64 17.6762 162.386 18.3401 163.381 19.1699C164.21 19.8338 165.205 20.4977 166.365 21.3276C167.443 22.0745 170.841 24.3152 172.333 25.311C172.499 25.394 172.748 25.394 172.831 25.228L173.908 23.7343C174.489 23.4023 174.406 23.2363 174.24 23.0704Z" fill="#D90615"/>
<path d="M132.462 10.6221H129.727V13.2777H132.462V10.6221Z" fill="#D90615"/>
<path d="M138.265 10.6221H135.529V13.2777H138.265V10.6221Z" fill="#D90615"/>
<path d="M132.462 16.2656H129.727V18.9212H132.462V16.2656Z" fill="#D90615"/>
<path d="M138.265 16.2656H135.529V18.9212H138.265V16.2656Z" fill="#D90615"/>
<path d="M38.7108 47.8838H14.5891C14.4233 47.8838 14.2575 48.0498 14.2575 48.2157V49.2946C14.2575 49.4606 14.4233 49.6265 14.5891 49.6265H25.2822C25.448 49.6265 25.6138 49.7925 25.6138 49.9585V58.9211C25.6138 59.0871 25.7796 59.2531 25.9453 59.2531H27.3545C27.5203 59.2531 27.6861 59.0871 27.6861 58.9211V50.0415C27.6861 49.8755 27.8519 49.7095 28.0176 49.7095H38.6279C38.7937 49.7095 38.9594 49.5435 38.9594 49.3776V48.2987C39.0423 48.0498 38.8766 47.8838 38.7108 47.8838Z" fill="#383636"/>
<path d="M27.2716 33.2783H25.9453C25.7795 33.2783 25.6137 33.4443 25.6137 33.6103V35.602C25.6137 36.2659 25.5309 36.8468 25.448 37.2617C25.3651 37.7597 25.1993 38.1746 24.9506 38.5065C24.7019 38.8385 24.3704 39.1704 23.9559 39.5024C23.5414 39.7513 23.0441 40.0833 22.4638 40.4153C21.552 40.9132 20.4744 41.4111 19.3139 41.909C18.3192 42.324 17.3245 42.7389 16.3298 43.1538C16.0811 43.2368 15.9982 43.4858 16.164 43.6518L16.7443 44.6476C16.8271 44.8136 17.0758 44.8966 17.2416 44.8136C18.3192 44.3987 19.3968 43.9007 20.3915 43.4858C21.4691 42.9879 22.4638 42.5729 23.2099 42.158C25.1164 41.1621 26.2769 40.3323 26.6913 39.6684C27.0229 40.3323 28.1834 41.1621 30.1728 42.158C31.0018 42.5729 31.9136 42.9879 32.9912 43.4858C33.9859 43.9007 34.9806 44.3987 36.1411 44.8136C36.3069 44.8966 36.5555 44.8136 36.6384 44.6476L37.1358 43.6518C37.2187 43.4858 37.1358 43.2368 36.97 43.1538C35.9753 42.7389 34.9806 42.407 33.9859 41.909C32.8254 41.4111 31.8307 40.9132 30.836 40.4153C30.2557 40.0833 29.7584 39.8343 29.3439 39.5024C28.9294 39.2534 28.5979 38.9215 28.4321 38.5065C28.1834 38.1746 28.0176 37.7597 27.9347 37.2617C27.8518 36.7638 27.7689 36.1829 27.7689 35.602V33.6103C27.6861 33.4443 27.5203 33.2783 27.2716 33.2783Z" fill="#383636"/>
<path d="M66.5626 40.664V39.5852C66.5626 39.4192 66.3968 39.2532 66.2311 39.2532H62.8325C62.6667 39.2532 62.5009 39.0872 62.5009 38.9213V32.7802C62.5009 32.6142 62.3351 32.4482 62.1693 32.4482H60.843C60.6773 32.4482 60.5115 32.6142 60.5115 32.7802V48.2159C60.5115 48.3819 60.6773 48.5478 60.843 48.5478H62.1693C62.3351 48.5478 62.5009 48.3819 62.5009 48.2159V41.4939C62.5009 41.3279 62.6667 41.1619 62.8325 41.1619H66.2311C66.3968 40.996 66.5626 40.83 66.5626 40.664Z" fill="#383636"/>
<path d="M60.1799 50.4567C59.4339 50.0418 58.6049 49.7098 57.6102 49.4609C56.6155 49.2119 55.6208 49.1289 54.4603 49.1289C53.3827 49.1289 52.3051 49.2119 51.3104 49.4609C50.3157 49.7098 49.4868 49.9588 48.7407 50.4567C47.9947 50.8716 47.4145 51.3696 47 52.0335C46.5855 52.6144 46.3369 53.3613 46.3369 54.1082V55.187C46.3369 55.9339 46.5855 56.6808 47 57.2617C47.4145 57.8426 47.9947 58.4235 48.7407 58.8384C49.4868 59.2534 50.3157 59.5853 51.3104 59.8343C52.3051 60.0833 53.2998 60.1662 54.4603 60.1662C55.5379 60.1662 56.6155 60.0833 57.6102 59.8343C58.6049 59.5853 59.4339 59.2534 60.1799 58.8384C60.9259 58.4235 61.5062 57.9256 61.9206 57.2617C62.3351 56.6808 62.5838 55.9339 62.5838 55.187V54.1082C62.5838 53.3613 62.3351 52.6144 61.9206 52.0335C61.4233 51.3696 60.843 50.8716 60.1799 50.4567ZM60.5115 55.104C60.5115 55.6019 60.3457 56.0999 60.0141 56.5148C59.6825 56.9297 59.2681 57.2617 58.6878 57.5107C58.1076 57.7596 57.5273 58.0086 56.7813 58.1745C56.0353 58.3405 55.2892 58.3405 54.4603 58.3405C53.6314 58.3405 52.8854 58.2575 52.1393 58.1745C51.3933 58.0086 50.7301 57.8426 50.2328 57.5107C49.7354 57.2617 49.2381 56.8467 48.9065 56.5148C48.5749 56.0999 48.4092 55.6019 48.4092 55.104V54.1911C48.4092 53.6932 48.5749 53.1953 48.9065 52.7804C49.2381 52.3654 49.6525 52.0335 50.2328 51.7845C50.813 51.5355 51.3933 51.2866 52.1393 51.2036C52.8854 51.0376 53.6314 50.9546 54.4603 50.9546C55.2892 50.9546 56.0353 51.0376 56.7813 51.2036C57.5273 51.3696 58.1905 51.5355 58.6878 51.7845C59.2681 52.0335 59.6825 52.3654 60.0141 52.7804C60.3457 53.1953 60.5115 53.6932 60.5115 54.1911V55.104Z" fill="#383636"/>
<path d="M48.8236 43.4025C49.2381 42.9876 49.4868 42.5727 49.5696 42.4067C49.6525 42.5727 49.9012 42.9046 50.3986 43.4025C50.8959 43.8175 51.4762 44.3984 52.2222 44.9793C52.6367 45.3113 53.2169 45.7262 53.8801 46.2241C54.4603 46.6391 54.9577 47.054 55.455 47.3859C55.6208 47.4689 55.8695 47.4689 55.9524 47.303L56.6984 46.3901C56.8642 46.2241 56.7813 45.9752 56.6155 45.8092C55.8695 45.3113 55.2063 44.8133 54.5432 44.3154C53.7972 43.7345 53.134 43.2366 52.6367 42.8216C52.1393 42.4067 51.8077 42.0747 51.4762 41.7428C51.2275 41.4108 50.9788 41.0789 50.813 40.8299C50.6473 40.498 50.5644 40.166 50.5644 39.8341C50.5644 39.5021 50.4815 39.0872 50.4815 38.6722V37.5934C50.4815 37.4274 50.6473 37.2615 50.813 37.2615H56.0353C56.201 37.2615 56.3668 37.0955 56.3668 36.9295V35.8507C56.3668 35.6847 56.201 35.5187 56.0353 35.5187H50.813C50.6473 35.5187 50.4815 35.3527 50.4815 35.1868V32.5312C50.4815 32.3652 50.3157 32.1992 50.1499 32.1992H48.8236C48.6578 32.1992 48.492 32.3652 48.492 32.5312V35.1868C48.492 35.3527 48.3263 35.5187 48.1605 35.5187H42.6067C42.4409 35.5187 42.2751 35.6847 42.2751 35.8507V36.9295C42.2751 37.0955 42.4409 37.2615 42.6067 37.2615H48.1605C48.3263 37.2615 48.492 37.4274 48.492 37.5934V38.7552C48.492 39.5021 48.4092 40.249 48.1605 40.8299C47.9118 41.4108 47.4144 42.0747 46.7513 42.8216C46.0053 43.5685 45.1764 44.2324 44.3474 44.9793C43.6014 45.5602 42.7725 46.2241 42.0264 46.722C41.8607 46.888 41.8607 47.137 41.9435 47.22L42.7725 48.1328C42.9383 48.2988 43.104 48.2988 43.2698 48.2158C43.5185 48.0498 43.8501 47.8009 44.0988 47.5519C44.5132 47.22 44.9277 46.888 45.3421 46.6391C45.7566 46.3071 46.1711 45.9752 46.5026 45.7262C46.8342 45.3942 47.1658 45.1453 47.4144 44.8963C47.8289 44.3154 48.3263 43.8175 48.8236 43.4025Z" fill="#383636"/>
<path d="M88.8607 48.5478H90.187C90.3528 48.5478 90.5185 48.3818 90.5185 48.2159V32.6972C90.5185 32.5312 90.3528 32.3652 90.187 32.3652H88.8607C88.6949 32.3652 88.5291 32.5312 88.5291 32.6972V39.7511C88.5291 39.9171 88.3633 40.0831 88.1976 40.0831H83.3898C83.224 40.0831 83.0582 40.2491 83.0582 40.415V41.4939C83.0582 41.6598 83.224 41.8258 83.3898 41.8258H88.1976C88.3633 41.8258 88.5291 41.9918 88.5291 42.1578V47.9669C88.5291 48.3818 88.6949 48.5478 88.8607 48.5478Z" fill="#383636"/>
<path d="M88.3633 50.4567C87.6173 50.0418 86.7884 49.7098 85.7936 49.4609C84.7989 49.2119 83.7213 49.1289 82.5608 49.1289C81.4003 49.1289 80.3227 49.2119 79.328 49.4609C78.3333 49.7098 77.5044 50.0418 76.7584 50.4567C76.0123 50.8716 75.4321 51.3696 75.0176 51.9505C74.6032 52.5314 74.3545 53.2783 74.3545 54.0252V55.187C74.3545 55.9339 74.6032 56.5978 75.0176 57.2617C75.4321 57.8426 76.0123 58.4235 76.7584 58.8384C77.5044 59.2534 78.3333 59.5853 79.328 59.8343C80.3227 60.0833 81.4003 60.1662 82.5608 60.1662C83.7213 60.1662 84.7989 60.0833 85.7936 59.8343C86.7884 59.5853 87.7002 59.2534 88.3633 58.8384C89.1093 58.4235 89.6896 57.9256 90.1041 57.2617C90.5185 56.6808 90.7672 55.9339 90.7672 55.187V54.0252C90.7672 53.2783 90.5185 52.6144 90.1041 51.9505C89.6896 51.3696 89.1093 50.8716 88.3633 50.4567ZM88.6949 55.104C88.6949 55.6019 88.5291 56.0999 88.1975 56.4318C87.866 56.8467 87.4515 57.1787 86.8713 57.4277C86.291 57.6766 85.6279 57.9256 84.8818 58.0916C84.1358 58.2575 83.3069 58.3405 82.478 58.3405C81.649 58.3405 80.8201 58.2575 80.0741 58.0916C79.328 57.9256 78.6649 57.7596 78.0847 57.4277C77.5044 57.1787 77.0899 56.7638 76.7584 56.4318C76.4268 56.0169 76.261 55.6019 76.261 55.104V54.1911C76.261 53.6932 76.4268 53.2783 76.7584 52.8633C77.0899 52.4484 77.5044 52.1165 78.0847 51.7845C78.6649 51.5355 79.328 51.2866 80.0741 51.1206C80.8201 50.9546 81.649 50.8716 82.478 50.8716C83.3069 50.8716 84.1358 50.9546 84.8818 51.1206C85.6279 51.2866 86.291 51.4526 86.8713 51.7845C87.4515 52.0335 87.866 52.4484 88.1975 52.8633C88.5291 53.2783 88.6949 53.6932 88.6949 54.1911V55.104Z" fill="#383636"/>
<path d="M76.0953 43.4855C76.5097 43.0706 76.7584 42.6557 76.8413 42.4897C76.9242 42.6557 77.1729 42.9876 77.6702 43.4855C78.1676 43.9005 78.7478 44.4814 79.4938 45.0623C79.9083 45.3942 80.4886 45.8092 81.1517 46.3071C81.7319 46.722 82.2293 47.137 82.7266 47.4689C82.8924 47.5519 83.1411 47.5519 83.224 47.3859L83.97 46.4731C84.1358 46.3071 84.0529 46.0581 83.8871 45.8922C83.1411 45.3942 82.478 44.8963 81.8148 44.3984C81.0688 43.8175 80.4057 43.3196 79.9083 42.9046C79.411 42.4897 79.0794 42.1577 78.7478 41.8258C78.4991 41.4938 78.2505 41.1619 78.0847 40.9129C77.9189 40.581 77.836 40.249 77.836 39.9171C77.836 39.5851 77.7531 39.1702 77.7531 38.7552V37.5934C77.7531 37.4274 77.9189 37.2615 78.0847 37.2615H83.3069C83.4727 37.2615 83.6385 37.0955 83.6385 36.9295V35.8507C83.6385 35.6847 83.4727 35.5187 83.3069 35.5187H78.0847C77.9189 35.5187 77.7531 35.3527 77.7531 35.1868V32.5312C77.7531 32.3652 77.5873 32.1992 77.4215 32.1992H76.0953C75.9295 32.1992 75.7637 32.3652 75.7637 32.5312V35.1868C75.7637 35.3527 75.5979 35.5187 75.4321 35.5187H69.9612C69.7954 35.5187 69.6296 35.6847 69.6296 35.8507V36.9295C69.6296 37.0955 69.7954 37.2615 69.9612 37.2615H75.4321C75.5979 37.2615 75.7637 37.4274 75.7637 37.5934V38.8382C75.7637 39.5851 75.6808 40.332 75.4321 40.9129C75.1834 41.4938 74.6861 42.1577 74.0229 42.9046C73.2769 43.6515 72.448 44.3154 71.6191 45.0623C70.873 45.6432 70.0441 46.3071 69.2981 46.805C69.1323 46.971 69.1323 47.22 69.2152 47.303L70.0441 48.2158C70.2099 48.3818 70.3757 48.3818 70.5415 48.2988C70.7901 48.1328 71.1217 47.8839 71.3704 47.6349C71.7848 47.303 72.1993 46.971 72.6138 46.722C73.0282 46.3901 73.4427 46.0581 73.7743 45.8092C74.1058 45.4772 74.4374 45.2283 74.6861 44.9793C75.1834 44.3984 75.6808 43.9005 76.0953 43.4855Z" fill="#383636"/>
<path d="M98.2275 35.2697V36.3486C98.2275 36.5145 98.3933 36.6805 98.5591 36.6805H106.019C106.185 36.6805 106.351 36.8465 106.351 37.0125V37.3444C106.351 37.7594 106.268 38.0913 106.185 38.3403C106.102 38.6722 105.937 38.9212 105.688 39.1702C105.439 39.4191 105.19 39.6681 104.776 39.917C104.362 40.166 103.864 40.415 103.284 40.6639C101.875 41.2448 99.9683 41.9087 97.4815 42.6556C97.2328 42.7386 97.1499 42.9876 97.2328 43.1536L97.6473 44.1494C97.7302 44.3154 97.8959 44.3984 98.1446 44.3984C99.2222 44.0664 100.3 43.7345 101.295 43.4025C102.372 43.0706 103.284 42.6556 104.113 42.3237C106.019 41.5768 107.097 40.9129 107.429 40.249C107.76 40.8299 108.921 41.4938 110.744 42.2407C111.656 42.6556 112.651 42.9876 113.728 43.3195C114.64 43.6515 115.635 43.9834 116.795 44.3154C116.961 44.3984 117.21 44.3154 117.293 44.0664L117.707 43.0706C117.79 42.9046 117.707 42.6556 117.459 42.5726C116.381 42.2407 115.303 41.9087 114.392 41.5768C113.314 41.2448 112.402 40.9129 111.656 40.5809C111.076 40.332 110.578 40.083 110.164 39.8341C109.75 39.5851 109.501 39.3361 109.252 39.0872C109.004 38.8382 108.838 38.5063 108.755 38.2573C108.672 37.9253 108.589 37.5934 108.589 37.2614V36.9295C108.589 36.7635 108.755 36.5975 108.921 36.5975H116.381C116.547 36.5975 116.713 36.4316 116.713 36.2656V35.1868C116.713 35.0208 116.547 34.8548 116.381 34.8548H108.921C108.755 34.8548 108.589 34.6888 108.589 34.5228V32.4482C108.589 32.2822 108.423 32.1162 108.258 32.1162H106.931C106.765 32.1162 106.6 32.2822 106.6 32.4482V34.5228C106.6 34.6888 106.434 34.8548 106.268 34.8548H98.8078C98.3933 34.8548 98.2275 35.0208 98.2275 35.2697Z" fill="#383636"/>
<path d="M119.531 46.3896H95.4092C95.2434 46.3896 95.0776 46.5556 95.0776 46.7216V47.8004C95.0776 47.9664 95.2434 48.1324 95.4092 48.1324H106.351C106.517 48.1324 106.683 48.2984 106.683 48.4643V53.1116C106.683 53.2776 106.848 53.4436 107.014 53.4436H108.34C108.506 53.4436 108.672 53.2776 108.672 53.1116V48.4643C108.672 48.2984 108.838 48.1324 109.004 48.1324H119.365C119.531 48.1324 119.697 47.9664 119.697 47.8004V46.7216C119.862 46.5556 119.697 46.3896 119.531 46.3896Z" fill="#383636"/>
<path d="M116.381 57.2612H101.129C100.963 57.2612 100.797 57.0952 100.797 56.9292V51.4521C100.797 51.2861 100.631 51.1201 100.466 51.1201H99.1393C98.9736 51.1201 98.8078 51.2861 98.8078 51.4521V58.755C98.8078 58.921 98.9736 59.0869 99.1393 59.0869H116.464C116.63 59.0869 116.795 58.921 116.795 58.755V57.6761C116.795 57.4272 116.63 57.2612 116.381 57.2612Z" fill="#383636"/>
<path d="M123.427 34.1074C123.261 34.1074 123.095 34.2734 123.095 34.4394V46.4726C123.095 46.6385 123.261 46.8045 123.427 46.8045H133.125C133.291 46.8045 133.457 46.6385 133.457 46.4726V34.5224C133.457 34.3564 133.291 34.1904 133.125 34.1904H123.427V34.1074ZM131.467 44.6468C131.467 44.8128 131.302 44.9788 131.136 44.9788H125.499C125.333 44.9788 125.168 44.8128 125.168 44.6468V36.4311C125.168 36.2651 125.333 36.0991 125.499 36.0991H131.136C131.302 36.0991 131.467 36.2651 131.467 36.4311V44.6468Z" fill="#383636"/>
<path d="M143.238 51.5354H144.564C144.73 51.5354 144.896 51.3694 144.896 51.2034V32.6972C144.896 32.5312 144.73 32.3652 144.564 32.3652H143.238C143.072 32.3652 142.907 32.5312 142.907 32.6972V39.2532C142.907 39.4192 142.741 39.5852 142.575 39.5852H139.342C139.176 39.5852 139.011 39.4192 139.011 39.2532V33.0291C139.011 32.8632 138.845 32.6972 138.679 32.6972H137.353C137.187 32.6972 137.021 32.8632 137.021 33.0291V50.5395C137.021 50.7055 137.187 50.8715 137.353 50.8715H138.679C138.845 50.8715 139.011 50.7055 139.011 50.5395V41.8258C139.011 41.6598 139.176 41.4939 139.342 41.4939H142.575C142.741 41.4939 142.907 41.6598 142.907 41.8258V51.1204C142.907 51.3694 143.072 51.5354 143.238 51.5354Z" fill="#383636"/>
<path d="M145.145 57.261H130.224C130.058 57.261 129.892 57.095 129.892 56.929V50.622C129.892 50.456 129.727 50.29 129.561 50.29H128.235C128.069 50.29 127.903 50.456 127.903 50.622V58.7548C127.903 58.9207 128.069 59.0867 128.235 59.0867H145.31C145.476 59.0867 145.642 58.9207 145.642 58.7548V57.6759C145.476 57.427 145.31 57.261 145.145 57.261Z" fill="#383636"/>
<path d="M165.536 39.3363C164.956 39.0044 164.459 38.7554 164.044 38.5064C163.63 38.2575 163.298 37.9255 163.132 37.5936C162.884 37.2616 162.718 36.9297 162.635 36.5147C162.552 36.0998 162.469 35.6849 162.469 35.1039V33.1952C162.469 33.0293 162.303 32.8633 162.138 32.8633H160.811C160.646 32.8633 160.48 33.0293 160.48 33.1952V35.1039C160.48 35.6019 160.397 36.0998 160.314 36.5147C160.231 36.9297 160.065 37.2616 159.817 37.5936C159.568 37.9255 159.236 38.1745 158.822 38.5064C158.407 38.7554 157.91 39.0873 157.33 39.3363C156.418 39.8342 155.34 40.3322 154.263 40.8301C153.268 41.245 152.356 41.66 151.362 41.9919C151.196 42.0749 151.03 42.3239 151.196 42.4898L151.776 43.4857C151.859 43.6517 152.108 43.7346 152.273 43.6517C153.351 43.2367 154.429 42.7388 155.34 42.3239C156.335 41.8259 157.33 41.411 158.076 40.9961C160.065 40.0002 161.226 39.1703 161.557 38.4234C161.889 39.0873 163.049 39.9172 165.039 40.9131C165.868 41.328 166.78 41.743 167.857 42.2409C168.852 42.6558 169.847 43.1537 170.924 43.5687C171.09 43.6517 171.339 43.5687 171.422 43.4027L171.919 42.4068C172.002 42.2409 171.919 41.9919 171.753 41.9089C170.758 41.494 169.764 41.162 168.852 40.6641C167.443 40.3322 166.448 39.8342 165.536 39.3363Z" fill="#383636"/>
<path d="M173.411 47.3027H166.78C166.614 47.3027 166.448 47.1368 166.448 46.9708V43.6513C166.448 43.4853 166.282 43.3193 166.116 43.3193H164.79C164.624 43.3193 164.459 43.4853 164.459 43.6513V46.9708C164.459 47.1368 164.293 47.3027 164.127 47.3027H158.905C158.739 47.3027 158.573 47.1368 158.573 46.9708V43.6513C158.573 43.4853 158.407 43.3193 158.242 43.3193H156.667C156.501 43.3193 156.335 43.4853 156.335 43.6513V46.9708C156.335 47.1368 156.169 47.3027 156.004 47.3027H149.372C149.206 47.3027 149.041 47.4687 149.041 47.6347V48.7135C149.041 48.8795 149.206 49.0455 149.372 49.0455H173.494C173.66 49.0455 173.825 48.8795 173.825 48.7135V47.6347C173.825 47.4687 173.66 47.3027 173.411 47.3027Z" fill="#383636"/>
<path d="M170.676 58.672V57.5932C170.676 57.4272 170.51 57.2613 170.344 57.2613H155.092C154.926 57.2613 154.76 57.0953 154.76 56.9293V51.7011C154.76 51.5351 154.594 51.3691 154.429 51.3691H153.102C152.937 51.3691 152.771 51.5351 152.771 51.7011V58.755C152.771 58.921 152.937 59.087 153.102 59.087H170.427C170.51 59.087 170.676 58.921 170.676 58.672Z" fill="#383636"/>
<path d="M154.677 66.8877H153.931V67.7176H154.677V66.8877Z" fill="#383636"/>
<path d="M21.7178 70.954C21.5521 70.7881 21.3034 70.6221 20.9718 70.5391C20.6402 70.3731 20.2258 70.2901 19.7284 70.2072C19.3969 70.1242 19.0653 70.0412 18.8995 69.9582C18.6508 69.8752 18.485 69.7922 18.3193 69.6262C18.1535 69.5433 18.0706 69.3773 17.9877 69.2943C17.9048 69.1283 17.9048 69.0453 17.9048 68.8794V68.6304C17.9048 68.4644 17.9877 68.2984 18.0706 68.1325C18.1535 67.9665 18.3193 67.8835 18.485 67.7175C18.6508 67.6345 18.8166 67.5516 19.0653 67.4686C19.314 67.3856 19.4798 67.3856 19.7284 67.3856C20.1429 67.3856 20.4745 67.4686 20.806 67.5516C21.1376 67.6345 21.3863 67.8005 21.635 67.9665L21.9665 67.3856C21.7178 67.2196 21.3863 67.0536 21.0547 66.8877C20.7231 66.8047 20.2258 66.7217 19.7284 66.7217C19.3969 66.7217 19.0653 66.8047 18.7337 66.8877C18.4022 66.9706 18.1535 67.1366 17.9877 67.3026C17.739 67.4686 17.5732 67.6345 17.4903 67.8835C17.4074 68.1325 17.3246 68.3814 17.3246 68.6304V68.8794C17.3246 69.1283 17.3246 69.3773 17.4074 69.5433C17.4903 69.7092 17.5732 69.9582 17.8219 70.1242C17.9877 70.2901 18.2364 70.4561 18.5679 70.5391C18.8995 70.7051 19.2311 70.7881 19.6455 70.8711C20.06 70.954 20.3916 71.037 20.6402 71.12C20.8889 71.203 21.0547 71.286 21.2205 71.452C21.3863 71.535 21.4692 71.7009 21.5521 71.8669C21.635 72.0329 21.635 72.1989 21.635 72.3648V72.6138C21.635 72.7798 21.5521 72.9457 21.4692 73.1117C21.3863 73.2777 21.3034 73.4437 21.1376 73.5267C20.9718 73.6096 20.806 73.7756 20.5574 73.7756C20.1429 73.7756 19.8942 73.8586 19.5626 73.8586C19.2311 73.8586 18.8995 73.7756 18.485 73.6926C18.1535 73.6096 17.739 73.3607 17.4074 73.1117L16.993 73.6926C17.3246 73.9416 17.739 74.1906 18.1535 74.2735C18.5679 74.4395 19.0653 74.5225 19.5626 74.5225C19.9771 74.5225 20.3087 74.4395 20.6402 74.3565C20.9718 74.2735 21.2205 74.1076 21.4692 73.9416C21.7178 73.7756 21.8836 73.5267 21.9665 73.2777C22.0494 73.0287 22.1323 72.7798 22.1323 72.5308V72.2818C22.1323 72.0329 22.1323 71.7839 22.0494 71.535C22.0494 71.369 21.8836 71.12 21.7178 70.954Z" fill="#383636"/>
<path d="M29.3439 72.3643C29.3439 72.5303 29.3439 72.6963 29.261 72.8623C29.1781 73.0282 29.0953 73.1942 28.9295 73.3602C28.7637 73.5262 28.5979 73.6092 28.4321 73.6921C28.1834 73.7751 27.9348 73.8581 27.6861 73.8581C27.4374 73.8581 27.1887 73.8581 27.0229 73.7751C26.8572 73.6921 26.6914 73.6092 26.6085 73.4432C26.5256 73.2772 26.4427 73.1112 26.4427 72.9453C26.4427 72.7793 26.3598 72.6133 26.3598 72.3643V68.7129H25.6138V72.5303C25.6138 73.1112 25.7796 73.6092 26.1111 73.9411C26.4427 74.2731 26.94 74.439 27.6032 74.439C28.0176 74.439 28.4321 74.356 28.6808 74.1901C28.9295 74.0241 29.1781 73.7751 29.3439 73.6092V74.356H30.0071V68.7129H29.261V72.3643H29.3439Z" fill="#383636"/>
<path d="M36.8043 73.6921C36.5556 73.7751 36.224 73.8581 35.8096 73.8581C35.3122 73.8581 34.8978 73.6921 34.6491 73.3602C34.3175 73.0282 34.2346 72.5303 34.2346 71.9494V71.2025C34.2346 70.6216 34.4004 70.1236 34.6491 69.7917C34.8978 69.4597 35.3122 69.2938 35.8096 69.2938C36.0583 69.2938 36.3069 69.2938 36.5556 69.3768C36.8043 69.4597 37.053 69.5427 37.3016 69.7087L37.6332 69.1278C37.3845 68.9618 37.1359 68.7958 36.8043 68.7129C36.4727 68.6299 36.1411 68.5469 35.7267 68.5469C35.3951 68.5469 35.0635 68.6299 34.8149 68.7129C34.5662 68.7958 34.3175 68.9618 34.0688 69.2108C33.9031 69.4597 33.7373 69.7087 33.5715 70.0407C33.4886 70.3726 33.4057 70.7045 33.4057 71.1195V71.7834C33.4057 72.6133 33.5715 73.2772 33.9859 73.6921C34.4004 74.107 34.9807 74.356 35.7267 74.356C35.9754 74.356 36.224 74.356 36.3898 74.273C36.5556 74.273 36.8043 74.19 36.9701 74.107C37.1359 74.0241 37.3016 73.9411 37.3845 73.9411C37.5503 73.8581 37.6332 73.7751 37.7161 73.6921L37.3845 73.1112C37.3016 73.4431 37.053 73.5261 36.8043 73.6921Z" fill="#383636"/>
<path d="M43.4357 68.6303C43.187 68.6303 43.0212 68.6303 42.8554 68.7133C42.6896 68.7963 42.5239 68.7963 42.3581 68.8793C42.1923 68.9623 42.1094 69.0453 42.0265 69.1282C41.9436 69.2112 41.8607 69.3772 41.7778 69.4602V66.3896H41.0318V74.3565H41.7778V70.705C41.7778 70.539 41.7778 70.373 41.8607 70.2071C41.9436 70.0411 42.0265 69.8751 42.1923 69.7092C42.3581 69.5432 42.5239 69.4602 42.6896 69.3772C42.8554 69.2942 43.1041 69.2112 43.3528 69.2112C43.6015 69.2112 43.8501 69.2112 44.0159 69.2942C44.1817 69.3772 44.3475 69.4602 44.4304 69.6262C44.5133 69.7921 44.5962 69.9581 44.6791 70.1241C44.762 70.2901 44.762 70.456 44.762 70.705V74.3565H45.508V70.539C45.508 69.9581 45.3422 69.4602 45.0106 69.1282C44.5133 68.7963 44.0159 68.6303 43.4357 68.6303Z" fill="#383636"/>
<path d="M51.0618 68.6299C50.6473 68.6299 50.2328 68.7129 49.9013 68.7959C49.5697 68.9618 49.321 69.1278 48.9895 69.2938L49.321 69.8747C49.5697 69.7087 49.8184 69.5427 50.0671 69.4598C50.3157 69.3768 50.6473 69.2938 50.9789 69.2938C51.3933 69.2938 51.7249 69.3768 51.9736 69.6257C52.2223 69.8747 52.3052 70.1237 52.3052 70.5386V71.0365H50.7302C50.0671 71.0365 49.5697 71.2025 49.2381 71.4515C48.9066 71.7004 48.7408 72.1154 48.7408 72.6133V72.8623C48.7408 73.3602 48.9066 73.7751 49.2381 74.0241C49.5697 74.273 49.9842 74.439 50.5644 74.439C50.9789 74.439 51.3933 74.356 51.7249 74.1901C51.8907 74.1071 51.9736 74.0241 52.1394 73.9411C52.2223 73.8581 52.3052 73.7751 52.3881 73.6921V74.356H53.0512V70.3726C53.0512 69.7917 52.8854 69.3768 52.5538 69.0448C52.2223 68.7959 51.7249 68.6299 51.0618 68.6299ZM52.3881 72.6133C52.3881 72.8623 52.3052 73.0282 52.2223 73.1942C52.1394 73.3602 51.9736 73.4432 51.8078 73.5261C51.642 73.6091 51.4762 73.6921 51.3105 73.7751C51.1447 73.8581 50.9789 73.8581 50.7302 73.8581C50.5644 73.8581 50.4815 73.8581 50.3157 73.7751C50.15 73.7751 50.0671 73.6921 49.9013 73.6091C49.8184 73.5261 49.7355 73.4432 49.6526 73.2772C49.5697 73.1112 49.5697 73.0282 49.5697 72.7793V72.6133C49.5697 72.2813 49.6526 72.1154 49.9013 71.8664C50.0671 71.7004 50.3986 71.6174 50.896 71.6174H52.4709V72.6133H52.3881Z" fill="#383636"/>
<path d="M59.1852 68.6299C58.9365 68.6299 58.7707 68.6299 58.6049 68.7129C58.4392 68.7959 58.2734 68.7959 58.1076 68.8788C57.9418 68.9618 57.8589 69.0448 57.6931 69.1278C57.6102 69.2108 57.5273 69.3768 57.4445 69.4598V68.7129H56.7813V74.356H57.5273V70.7046C57.5273 70.5386 57.5273 70.3726 57.6102 70.2066C57.6931 70.0407 57.776 69.8747 57.9418 69.7087C58.1076 69.5427 58.2734 69.4598 58.4392 69.3768C58.6049 69.2938 58.8536 69.2108 59.1023 69.2108C59.351 69.2108 59.5997 69.2108 59.7654 69.2938C59.9312 69.3768 60.097 69.4598 60.1799 69.6257C60.2628 69.7917 60.3457 69.9577 60.4286 70.1237C60.5115 70.2896 60.5115 70.4556 60.5115 70.7046V74.356H61.2575V70.5386C61.2575 69.9577 61.0917 69.4598 60.7601 69.1278C60.3457 68.7959 59.8483 68.6299 59.1852 68.6299Z" fill="#383636"/>
<path d="M68.5521 69.4598C68.3863 69.2108 68.2205 69.0448 67.8889 68.8788C67.6403 68.7129 67.2258 68.6299 66.8113 68.6299C66.4798 68.6299 66.2311 68.7129 65.8995 68.7959C65.6508 68.8788 65.4022 69.0448 65.1535 69.2938C64.9877 69.4598 64.8219 69.7917 64.6561 70.0407C64.6561 70.2896 64.6561 70.7046 64.6561 71.0365V71.9494C64.6561 72.3643 64.739 72.6963 64.8219 72.9452C64.9048 73.2772 65.0706 73.5262 65.3193 73.6921C65.4851 73.8581 65.7337 74.0241 66.0653 74.1901C66.314 74.273 66.6455 74.356 66.9771 74.356C67.3087 74.356 67.6403 74.273 67.8889 74.1901C68.2205 74.0241 68.4692 73.8581 68.5521 73.5261V74.273C68.5521 74.854 68.3863 75.2689 68.1376 75.6008C67.8889 75.8498 67.4745 76.0158 66.9771 76.0158C66.8113 76.0158 66.6455 76.0158 66.5627 76.0158C66.3969 76.0158 66.314 76.0158 66.1482 75.9328C66.0653 75.9328 65.8995 75.8498 65.8166 75.7668C65.7337 75.6838 65.5679 75.6008 65.4022 75.5179L65.0706 76.0988C65.3193 76.2647 65.5679 76.4307 65.8995 76.5137C66.2311 76.5967 66.5627 76.6797 66.9771 76.6797C67.6403 76.6797 68.2205 76.5137 68.635 76.0988C69.0494 75.6838 69.2152 75.1029 69.2152 74.273V68.7129H68.5521V69.4598ZM68.5521 72.2813C68.5521 72.5303 68.4692 72.7793 68.3863 72.9452C68.3034 73.1112 68.2205 73.2772 68.0547 73.4432C67.8889 73.5262 67.7231 73.6921 67.5574 73.6921C67.3916 73.7751 67.1429 73.7751 66.8942 73.7751C66.3969 73.7751 66.0653 73.6091 65.7337 73.2772C65.4851 72.9452 65.3193 72.4473 65.3193 71.8664V71.2025C65.3193 70.6216 65.4851 70.1237 65.7337 69.7917C65.9824 69.4598 66.3969 69.2938 66.8942 69.2938C67.1429 69.2938 67.3087 69.3768 67.5574 69.4598C67.7231 69.5427 67.9718 69.6257 68.0547 69.7917C68.2205 69.9577 68.3034 70.0407 68.3863 70.2066C68.4692 70.3726 68.4692 70.5386 68.4692 70.7046V72.2813H68.5521Z" fill="#383636"/>
<path d="M79.9912 70.6221L77.836 66.8047H77.09L79.6596 71.286V74.3566H80.3228V71.286L82.8924 66.8047H82.0635L79.9912 70.6221Z" fill="#383636"/>
<path d="M87.4515 68.6299C86.7055 68.6299 86.1253 68.8788 85.7108 69.2938C85.2963 69.7087 85.0477 70.3726 85.0477 71.2025V71.8664C85.0477 72.6963 85.2963 73.3602 85.7108 73.7751C86.1253 74.1901 86.7055 74.439 87.4515 74.439C88.1976 74.439 88.7778 74.1901 89.1923 73.7751C89.6068 73.3602 89.8554 72.6963 89.8554 71.8664V71.2025C89.8554 70.3726 89.6068 69.7087 89.1923 69.2938C88.7778 68.8788 88.1976 68.6299 87.4515 68.6299ZM89.1094 71.8664C89.1094 72.5303 88.9436 73.0282 88.6949 73.3602C88.3634 73.6921 88.0318 73.8581 87.4515 73.8581C86.9542 73.8581 86.5397 73.6921 86.2082 73.3602C85.8766 73.0282 85.7937 72.5303 85.7937 71.8664V71.2855C85.7937 70.6216 85.9595 70.1237 86.2082 69.7917C86.5397 69.4598 86.8713 69.2938 87.4515 69.2938C87.9489 69.2938 88.3634 69.4598 88.6949 69.7917C89.0265 70.1237 89.1094 70.6216 89.1094 71.2855V71.8664Z" fill="#383636"/>
<path d="M96.9013 72.3643C96.9013 72.5303 96.9013 72.6963 96.8184 72.8623C96.7355 73.0282 96.6526 73.1942 96.4868 73.3602C96.321 73.5262 96.1552 73.6092 95.9895 73.6921C95.8237 73.7751 95.575 73.8581 95.3263 73.8581C95.0776 73.8581 94.829 73.8581 94.6632 73.7751C94.4974 73.6921 94.3316 73.6092 94.2487 73.4432C94.1658 73.2772 94.0829 73.1112 94.0829 72.9453C94.0829 72.7793 94 72.6133 94 72.3643V68.7129H93.254V72.5303C93.254 73.1112 93.4198 73.6092 93.7514 73.9411C94.0829 74.2731 94.5803 74.439 95.2434 74.439C95.6579 74.439 96.0723 74.356 96.321 74.1901C96.5697 74.0241 96.8184 73.7751 96.9842 73.6092V74.356H97.6473V68.7129H96.9013V72.3643Z" fill="#383636"/>
<path d="M103.284 73.8587C103.035 73.8587 102.787 73.7757 102.704 73.6098C102.621 73.4438 102.538 73.1948 102.538 72.7799V69.2944H104.113V68.7135H102.538V67.2197H101.792V68.7135H100.797V69.2944H101.792V72.7799C101.792 73.1118 101.792 73.3608 101.875 73.5268C101.958 73.6928 102.041 73.8587 102.123 74.0247C102.206 74.1907 102.372 74.2737 102.538 74.2737C102.704 74.3567 102.952 74.3567 103.201 74.3567C103.367 74.3567 103.533 74.3567 103.698 74.3567C103.864 74.3567 104.03 74.2737 104.113 74.2737L104.03 73.6928C103.864 73.7757 103.616 73.8587 103.284 73.8587Z" fill="#383636"/>
<path d="M109.915 68.6303C109.667 68.6303 109.501 68.6303 109.335 68.7133C109.169 68.7963 109.004 68.7963 108.838 68.8793C108.672 68.9623 108.589 69.0453 108.506 69.1282C108.423 69.2112 108.34 69.3772 108.258 69.4602V66.3896H107.512V74.3565H108.258V70.705C108.258 70.539 108.258 70.373 108.34 70.2071C108.423 70.0411 108.506 69.8751 108.672 69.7092C108.838 69.5432 109.004 69.4602 109.169 69.3772C109.335 69.2942 109.584 69.2112 109.832 69.2112C110.081 69.2112 110.33 69.2112 110.496 69.2942C110.661 69.3772 110.827 69.4602 110.91 69.6262C110.993 69.7921 111.076 69.9581 111.159 70.1241C111.242 70.2901 111.242 70.456 111.242 70.705V74.3565H111.988V70.539C111.988 69.9581 111.822 69.4602 111.49 69.1282C111.076 68.7963 110.579 68.6303 109.915 68.6303Z" fill="#383636"/>
<path d="M123.758 72.3649L121.189 66.8047H120.277V74.3566H121.023V67.8835C121.023 67.9665 121.106 68.1325 121.106 68.1325C121.106 68.2155 121.189 68.2985 121.189 68.3815C121.189 68.4644 121.272 68.5474 121.272 68.5474C121.272 68.6304 121.355 68.7134 121.355 68.7964L123.344 73.1117H124.007L125.997 68.7964C126.079 68.7134 126.079 68.6304 126.079 68.5474C126.079 68.4644 126.162 68.3815 126.162 68.3815C126.162 68.3815 126.245 68.2155 126.245 68.1325C126.245 68.0495 126.328 67.9665 126.328 67.8835V74.3566H127.074V66.8047H126.245L123.758 72.3649Z" fill="#383636"/>
<path d="M132.959 68.6299C132.545 68.6299 132.131 68.7129 131.799 68.7959C131.467 68.9618 131.219 69.1278 130.887 69.2938L131.219 69.8747C131.467 69.7087 131.716 69.5427 131.965 69.4598C132.213 69.3768 132.545 69.2938 132.877 69.2938C133.291 69.2938 133.623 69.3768 133.871 69.6257C134.12 69.8747 134.203 70.1237 134.203 70.5386V71.0365H132.628C131.965 71.0365 131.467 71.2025 131.136 71.4515C130.804 71.7004 130.638 72.1154 130.638 72.6133V72.8623C130.638 73.3602 130.804 73.7751 131.136 74.0241C131.467 74.273 131.882 74.439 132.462 74.439C132.877 74.439 133.291 74.356 133.623 74.1901C133.788 74.1071 133.871 74.0241 134.037 73.9411C134.12 73.8581 134.203 73.7751 134.286 73.6921V74.356H134.949V70.3726C134.949 69.7917 134.783 69.3768 134.452 69.0448C134.037 68.7959 133.54 68.6299 132.959 68.6299ZM134.203 72.6133C134.203 72.8623 134.12 73.0282 134.037 73.1942C133.954 73.3602 133.788 73.4432 133.623 73.5261C133.457 73.6091 133.291 73.6921 133.125 73.7751C132.959 73.8581 132.711 73.8581 132.545 73.8581C132.379 73.8581 132.296 73.8581 132.131 73.7751C131.965 73.7751 131.882 73.6921 131.716 73.6091C131.633 73.5261 131.55 73.4432 131.467 73.2772C131.385 73.1112 131.385 73.0282 131.385 72.7793V72.6133C131.385 72.2813 131.467 72.1154 131.716 71.8664C131.882 71.7004 132.213 71.6174 132.711 71.6174H134.286V72.6133H134.203Z" fill="#383636"/>
<path d="M141 68.6299C140.751 68.6299 140.586 68.6299 140.42 68.7129C140.254 68.7959 140.088 68.7959 139.922 68.8788C139.757 68.9618 139.674 69.0448 139.508 69.1278C139.425 69.2108 139.342 69.3768 139.259 69.4598V68.7129H138.596V74.356H139.342V70.7046C139.342 70.5386 139.342 70.3726 139.425 70.2066C139.508 70.0407 139.591 69.8747 139.757 69.7087C139.922 69.5427 140.088 69.4598 140.254 69.3768C140.42 69.2938 140.668 69.2108 140.917 69.2108C141.166 69.2108 141.415 69.2108 141.58 69.2938C141.746 69.3768 141.912 69.4598 141.995 69.6257C142.078 69.7917 142.161 69.9577 142.243 70.1237C142.326 70.2896 142.326 70.4556 142.326 70.7046V74.356H143.072V70.5386C143.072 69.9577 142.907 69.4598 142.575 69.1278C142.161 68.7959 141.663 68.6299 141 68.6299Z" fill="#383636"/>
<path d="M148.626 71.2025C148.212 71.1195 147.797 71.0365 147.631 70.8706C147.383 70.7046 147.3 70.5386 147.3 70.2896V70.2067C147.3 69.9577 147.383 69.7917 147.631 69.5428C147.88 69.3768 148.212 69.2938 148.626 69.2938C148.958 69.2938 149.289 69.3768 149.538 69.4598C149.787 69.5428 150.035 69.6257 150.284 69.7917L150.616 69.2938C150.367 69.1278 150.118 68.9619 149.787 68.8789C149.455 68.7959 149.124 68.7129 148.709 68.7129C148.377 68.7129 148.046 68.7129 147.797 68.7959C147.549 68.8789 147.3 68.9619 147.134 69.1278C146.968 69.2938 146.803 69.4598 146.72 69.6258C146.637 69.7917 146.554 70.0407 146.554 70.2067V70.3726C146.554 70.6216 146.637 70.7876 146.72 70.9536C146.803 71.1195 146.968 71.2855 147.134 71.3685C147.3 71.4515 147.466 71.6175 147.714 71.7004C147.963 71.7834 148.212 71.8664 148.46 71.8664C149.041 71.9494 149.372 72.1154 149.621 72.2814C149.87 72.4473 149.952 72.6133 149.952 72.9453V73.0282C149.952 73.2772 149.87 73.5262 149.621 73.6921C149.372 73.8581 149.041 73.9411 148.543 73.9411C148.212 73.9411 147.88 73.8581 147.631 73.7751C147.3 73.6921 147.051 73.5262 146.803 73.3602L146.471 73.9411C146.72 74.1071 147.051 74.2731 147.383 74.439C147.714 74.522 148.129 74.605 148.626 74.605C148.958 74.605 149.206 74.605 149.455 74.522C149.704 74.439 149.952 74.356 150.118 74.1901C150.284 74.0241 150.45 73.8581 150.533 73.6921C150.616 73.5262 150.698 73.2772 150.698 73.1112V72.9453C150.698 72.5303 150.533 72.1154 150.201 71.8664C149.87 71.4515 149.372 71.2855 148.626 71.2025Z" fill="#383636"/>
<path d="M154.76 68.7129H154.014V74.356H154.76V68.7129Z" fill="#383636"/>
<path d="M160.563 68.6299C159.817 68.6299 159.236 68.8788 158.822 69.2938C158.407 69.7087 158.159 70.3726 158.159 71.2025V71.8664C158.159 72.6963 158.407 73.3602 158.822 73.7751C159.236 74.1901 159.817 74.439 160.563 74.439C161.309 74.439 161.889 74.1901 162.303 73.7751C162.718 73.3602 162.967 72.6963 162.967 71.8664V71.2025C162.967 70.3726 162.718 69.7087 162.303 69.2938C161.972 68.8788 161.392 68.6299 160.563 68.6299ZM162.22 71.8664C162.22 72.5303 162.055 73.0282 161.806 73.3602C161.474 73.6921 161.143 73.8581 160.563 73.8581C160.065 73.8581 159.651 73.6921 159.319 73.3602C158.988 73.0282 158.905 72.5303 158.905 71.8664V71.2855C158.905 70.6216 159.071 70.1237 159.319 69.7917C159.651 69.4598 159.982 69.2938 160.563 69.2938C161.06 69.2938 161.474 69.4598 161.806 69.7917C162.138 70.1237 162.22 70.6216 162.22 71.2855V71.8664Z" fill="#383636"/>
<path d="M168.852 68.6299C168.603 68.6299 168.437 68.6299 168.272 68.7129C168.106 68.7959 167.94 68.7959 167.774 68.8788C167.608 68.9618 167.526 69.0448 167.36 69.1278C167.277 69.2108 167.194 69.3768 167.111 69.4598V68.7129H166.448V74.356H167.194V70.7046C167.194 70.5386 167.194 70.3726 167.277 70.2066C167.36 70.0407 167.443 69.8747 167.608 69.7087C167.774 69.5427 167.94 69.4598 168.106 69.3768C168.272 69.2938 168.52 69.2108 168.769 69.2108C169.018 69.2108 169.266 69.2108 169.432 69.2938C169.598 69.3768 169.764 69.4598 169.847 69.6257C169.929 69.7917 170.012 69.9577 170.095 70.1237C170.178 70.2896 170.178 70.4556 170.178 70.7046V74.356H170.924V70.5386C170.924 69.9577 170.758 69.4598 170.427 69.1278C170.012 68.7959 169.515 68.6299 168.852 68.6299Z" fill="#383636"/>
</svg>
